<?xml version="1.0" encoding="utf-8"?>
<!-- Generator: Adobe Illustrator 22.1.0, SVG Export Plug-In . SVG Version: 6.00 Build 0)  -->
<svg version="1.1" id="Chess" xmlns="http://www.w3.org/2000/svg" xmlns:xlink="http://www.w3.org/1999/xlink" x="0px" y="0px"
	 viewBox="0 0 512 512" style="enable-background:new 0 0 512 512;" xml:space="preserve">
<path d="M352.8,392.4c-0.6-6-0.8-12,0.4-17.6c5.5-24.9,12.3-49.6,20.1-73.8c12.7-39.9,20.4-79.8,7.7-121.3
	c-14-46.1-41.9-78.9-89.2-93.2c-2.1-21.7-20.4-38.7-42.7-38.7h-0.4l0,39.6l-7.2,1.7c-5.3,1.2-8.9,6.1-8.4,11.5l0.1,1.6
	c-0.9,6.1-3.8,7.3-14.1,11.5c-4.8,1.9-9.8,3.3-14.1,5.9c-3.5,2-6.6,5.1-9.3,8.2c-6.3,7.3-11.6,15.6-18.6,22
	c-13.9,12.9-28.5,25.3-43.3,37.3c-6.4,5.1-11.2,9.8-8,19c1,2.6-0.3,6.2-0.9,9.2c-1.8,9.4,6.3,25.6,15,29.8c20.5,9.9,36.7,7.2,53-9.3
	c7.7-7.7,16.1-10.8,26.9-7.1c15,5.2,30.2,9,48.1,4.8c-3.5,3.7-5.6,6-7.8,8.1c-20.4,20.8-40,42-55,67.2
	c-8.5,14.4-15.9,29.3-19.3,45.3c-1.3,6.3-2,12.8-1.9,19.4c0.1,6.2,0.8,12.5,1.7,18.8h-11.3l0,27.3h-11.8v44.5h36.4l185.5,0l0-44.4
	l-13.1,0l0-27.4L352.8,392.4z M214.6,150.7c0-5.2,4.2-9.4,9.4-9.4s9.4,4.2,9.4,9.4s-4.2,9.4-9.4,9.4S214.6,155.9,214.6,150.7z"/>
</svg>
