<?xml version="1.0" encoding="utf-8"?>
<!-- Generator: Adobe Illustrator 22.1.0, SVG Export Plug-In . SVG Version: 6.00 Build 0)  -->
<svg version="1.1" id="Layer_1" xmlns="http://www.w3.org/2000/svg" xmlns:xlink="http://www.w3.org/1999/xlink" x="0px" y="0px"
	 viewBox="0 0 64 64" style="enable-background:new 0 0 64 64;" xml:space="preserve">
<style type="text/css">
	.st0{fill:#F05F22;}
</style>
<title></title>
<path class="st0" d="M32,0C21,0,12,9,12,20c0,0,0,0.1,0,0.1c0,0.5,0,1.1,0.1,1.6c0,0.4,0.1,0.8,0.1,1.1c0,0.1,0,0.2,0,0.4
	c0.1,0.4,0.1,0.8,0.2,1.2C15.5,39.7,32,64,32,64s16.5-24.3,19.5-39.6c0.1-0.4,0.1-0.8,0.2-1.2c0-0.1,0-0.2,0-0.4
	c0-0.4,0.1-0.8,0.1-1.1c0-0.6,0.1-1.1,0.1-1.6C52,9,43.1,0,32,0C32,0,32,0,32,0z M32,29.5c-5.2,0-9.4-4.2-9.4-9.4
	c0-5.2,4.2-9.4,9.4-9.4s9.4,4.2,9.4,9.4c0,0,0,0,0,0C41.4,25.3,37.2,29.5,32,29.5C32,29.5,32,29.5,32,29.5z"/>
</svg>
