<?xml version="1.0" encoding="utf-8"?>
<!-- Generator: Adobe Illustrator 23.0.3, SVG Export Plug-In . SVG Version: 6.00 Build 0)  -->
<svg version="1.1" id="Layer_1" xmlns="http://www.w3.org/2000/svg" xmlns:xlink="http://www.w3.org/1999/xlink" x="0px" y="0px"
	 viewBox="0 0 255.6 255.6" style="enable-background:new 0 0 255.6 255.6;" xml:space="preserve">
<style type="text/css">
	.st0{fill:#F05F22;}
	.st1{fill:#FFFFFF;}
</style>
<g>
	<circle class="st0" cx="127.8" cy="127.8" r="127.8"/>
	<g>
		<path class="st1" d="M79.04,156.14l6.09-3.57c2.71-1.59,6.07-1.57,8.76,0.05l5.7,3.43c2.75,1.66,5.85,2.48,8.95,2.48
			c3.03,0,6.07-0.8,8.78-2.39l6.09-3.57c2.71-1.59,6.07-1.57,8.76,0.05l5.7,3.43c5.45,3.28,12.24,3.31,17.73,0.1l6.09-3.57
			c2.71-1.59,6.06-1.57,8.76,0.05l5.7,3.43c5.45,3.28,12.24,3.31,17.73,0.1l6.1-3.57l-4.45-7.59l-6.1,3.57
			c-2.7,1.59-6.06,1.57-8.74-0.05l-5.7-3.43c-4.6-2.77-10.16-3.23-15.08-1.37V76.38c0-8.2,6.67-14.86,14.86-14.86h7.46v-8.8h-7.46
			c-13.05,0-23.66,10.61-23.66,23.66v7.19h-36.9v-7.19c0-8.2,6.67-14.86,14.86-14.86h7.46v-8.8h-7.46
			c-13.05,0-23.66,10.61-23.66,23.66v72.74c-0.43-0.17-0.86-0.38-1.26-0.62l-5.7-3.43c-5.45-3.28-12.25-3.32-17.74-0.1l-6.09,3.57
			c-2.7,1.59-6.06,1.57-8.74-0.05l-5.66-3.4l-4.53,7.54l5.66,3.4C66.76,159.32,73.55,159.36,79.04,156.14L79.04,156.14z
			 M142.39,148.5l-5.7-3.43c-5.45-3.28-12.25-3.32-17.74-0.1l-4.77,2.8v-23.92h36.9v24.72C148.38,150.14,145.06,150.11,142.39,148.5
			L142.39,148.5z M151.08,92.37v22.69h-36.9V92.37H151.08z M151.08,92.37"/>
		<path class="st1" d="M79.04,178.32l6.09-3.57c2.71-1.59,6.07-1.57,8.76,0.05l5.7,3.43c5.45,3.28,12.24,3.31,17.73,0.1l6.09-3.57
			c2.71-1.59,6.07-1.57,8.76,0.05l5.7,3.43c5.45,3.28,12.24,3.31,17.73,0.1l6.09-3.57c2.71-1.59,6.06-1.57,8.76,0.05l5.7,3.43
			c2.75,1.66,5.85,2.48,8.95,2.48c3.03,0,6.07-0.8,8.78-2.39l6.1-3.57l-4.45-7.59l-6.1,3.57c-2.71,1.59-6.06,1.57-8.74-0.05
			l-5.7-3.43c-5.45-3.28-12.25-3.32-17.74-0.1l-6.09,3.57c-2.7,1.59-6.06,1.57-8.74-0.05l-5.7-3.43c-5.45-3.28-12.25-3.32-17.74-0.1
			l-6.09,3.57c-2.7,1.59-6.06,1.57-8.74-0.05l-5.7-3.43c-5.45-3.28-12.25-3.32-17.74-0.1l-6.09,3.57c-2.71,1.59-6.06,1.57-8.74-0.05
			l-5.66-3.4l-4.53,7.54l5.66,3.4C66.76,181.5,73.55,181.54,79.04,178.32L79.04,178.32z M79.04,178.32"/>
		<path class="st1" d="M189.41,192.91c-2.71,1.59-6.06,1.57-8.74-0.05l-5.7-3.43c-5.45-3.28-12.25-3.32-17.74-0.1l-6.09,3.57
			c-2.71,1.59-6.06,1.57-8.74-0.05l-5.7-3.43c-5.45-3.28-12.25-3.32-17.74-0.1l-6.09,3.57c-2.7,1.59-6.06,1.57-8.74-0.05l-5.7-3.43
			c-5.45-3.28-12.25-3.32-17.74-0.1l-6.09,3.57c-2.71,1.59-6.06,1.57-8.74-0.05l-5.66-3.4L55.65,197l5.66,3.4
			c5.45,3.28,12.24,3.31,17.73,0.1l6.09-3.57c2.71-1.59,6.07-1.57,8.76,0.05l5.7,3.43c5.45,3.28,12.24,3.31,17.73,0.1l6.09-3.57
			c2.71-1.59,6.07-1.57,8.76,0.05l5.7,3.43c5.45,3.28,12.24,3.31,17.73,0.1l6.09-3.57c2.71-1.59,6.06-1.57,8.76,0.05l5.7,3.43
			c2.75,1.66,5.85,2.48,8.95,2.48c3.03,0,6.07-0.8,8.78-2.39l6.1-3.58l-4.45-7.59L189.41,192.91z M189.41,192.91"/>
	</g>
</g>
</svg>
