<?xml version="1.0" encoding="utf-8"?>
<!-- Generator: Adobe Illustrator 23.0.3, SVG Export Plug-In . SVG Version: 6.00 Build 0)  -->
<svg version="1.1" id="Layer_1" xmlns="http://www.w3.org/2000/svg" xmlns:xlink="http://www.w3.org/1999/xlink" x="0px" y="0px"
	 viewBox="0 0 254.89 254.89" style="enable-background:new 0 0 254.89 254.89;" xml:space="preserve">
<style type="text/css">
	.st0{fill:#F05F22;}
	.st1{fill:#FFFFFF;}
</style>
<g>
	<circle class="st0" cx="127.45" cy="127.45" r="127.45"/>
	<g>
		<path class="st1" d="M106.7,130.66h41.48c16.26-7.77,27.52-24.37,27.52-43.56c0-26.61-21.65-48.26-48.27-48.26
			c-26.61,0-48.26,21.65-48.26,48.26C79.18,106.3,90.44,122.89,106.7,130.66L106.7,130.66z M156.03,73.54
			c0.8-0.8,1.9-1.25,3.03-1.25c1.13,0,2.23,0.46,3.02,1.25c0.8,0.8,1.25,1.9,1.25,3.02s-0.45,2.23-1.25,3.02
			c-0.8,0.8-1.9,1.25-3.02,1.25c-1.12,0-2.23-0.46-3.03-1.25c-0.79-0.8-1.25-1.9-1.25-3.02S155.24,74.34,156.03,73.54L156.03,73.54z
			 M156.03,94.62c0.8-0.8,1.9-1.25,3.03-1.25c1.13,0,2.23,0.46,3.02,1.25c0.8,0.79,1.25,1.9,1.25,3.02c0,1.12-0.45,2.23-1.25,3.02
			c-0.8,0.79-1.9,1.25-3.02,1.25c-1.12,0-2.23-0.46-3.03-1.25c-0.79-0.8-1.25-1.9-1.25-3.02C154.78,96.52,155.24,95.41,156.03,94.62
			L156.03,94.62z M145.5,84.08c0.8-0.79,1.9-1.25,3.02-1.25c1.13,0,2.23,0.46,3.03,1.25c0.8,0.8,1.25,1.9,1.25,3.02
			s-0.45,2.23-1.25,3.02c-0.8,0.8-1.9,1.25-3.03,1.25c-1.12,0-2.22-0.46-3.02-1.25c-0.79-0.79-1.25-1.9-1.25-3.02
			S144.7,84.88,145.5,84.08L145.5,84.08z M145.5,105.16c0.8-0.8,1.9-1.25,3.02-1.25c1.13,0,2.23,0.46,3.03,1.25
			c0.8,0.79,1.25,1.9,1.25,3.02c0,1.12-0.45,2.23-1.25,3.02c-0.8,0.8-1.9,1.25-3.03,1.25c-1.12,0-2.22-0.46-3.02-1.25
			c-0.79-0.8-1.25-1.89-1.25-3.02C144.24,107.06,144.7,105.95,145.5,105.16L145.5,105.16z M134.96,94.62
			c0.79-0.8,1.9-1.25,3.02-1.25c1.13,0,2.23,0.46,3.02,1.25c0.8,0.79,1.25,1.9,1.25,3.02c0,1.12-0.45,2.23-1.25,3.02
			c-0.8,0.79-1.89,1.25-3.02,1.25c-1.12,0-2.22-0.46-3.02-1.25c-0.8-0.8-1.25-1.9-1.25-3.02C133.7,96.52,134.16,95.41,134.96,94.62
			L134.96,94.62z M134.96,115.7c0.8-0.8,1.9-1.25,3.02-1.25c1.13,0,2.23,0.46,3.02,1.25c0.8,0.8,1.25,1.9,1.25,3.02
			c0,1.12-0.45,2.23-1.25,3.02c-0.8,0.8-1.89,1.25-3.02,1.25c-1.12,0-2.22-0.46-3.02-1.25c-0.8-0.79-1.25-1.9-1.25-3.02
			C133.7,117.6,134.16,116.49,134.96,115.7L134.96,115.7z M124.42,105.16c0.8-0.8,1.9-1.25,3.02-1.25c1.13,0,2.23,0.46,3.02,1.25
			c0.8,0.79,1.25,1.9,1.25,3.02c0,1.12-0.45,2.23-1.25,3.02c-0.8,0.8-1.9,1.25-3.02,1.25s-2.23-0.46-3.02-1.25
			c-0.8-0.8-1.25-1.9-1.25-3.02C123.17,107.06,123.62,105.95,124.42,105.16L124.42,105.16z M113.88,115.7
			c0.8-0.8,1.9-1.25,3.02-1.25c1.13,0,2.23,0.46,3.03,1.25c0.8,0.8,1.25,1.9,1.25,3.02c0,1.12-0.45,2.23-1.25,3.02
			c-0.8,0.8-1.9,1.25-3.03,1.25c-1.12,0-2.22-0.46-3.02-1.25c-0.79-0.79-1.25-1.9-1.25-3.02
			C112.63,117.6,113.09,116.49,113.88,115.7L113.88,115.7z M113.88,115.7"/>
		<path class="st1" d="M117.93,155.15c0.77,0.77,1.2,1.82,1.2,2.9v54.85c0,1.74,1.41,3.14,3.14,3.14h10.34
			c1.74,0,3.15-1.41,3.15-3.14v-54.85c0-1.09,0.43-2.13,1.2-2.9l12.47-12.46c1.98-1.98,0.58-5.37-2.22-5.37h-39.52
			c-2.8,0-4.2,3.39-2.22,5.37L117.93,155.15z M117.93,155.15"/>
	</g>
</g>
</svg>
