<?xml version="1.0" encoding="utf-8"?>
<!-- Generator: Adobe Illustrator 23.0.3, SVG Export Plug-In . SVG Version: 6.00 Build 0)  -->
<svg version="1.1" id="Layer_1" xmlns="http://www.w3.org/2000/svg" xmlns:xlink="http://www.w3.org/1999/xlink" x="0px" y="0px"
	 viewBox="0 0 255.86 255.86" style="enable-background:new 0 0 255.86 255.86;" xml:space="preserve">
<style type="text/css">
	.st0{fill:#F05F22;}
	.st1{fill:#FFFFFF;}
</style>
<circle class="st0" cx="127.93" cy="127.93" r="127.93"/>
<g>
	<g>
		<path class="st1" d="M91.46,69.07c-0.04,0.28-0.07,0.56-0.07,0.85V70c0-0.29,0.03-0.58,0.07-0.86
			C91.46,69.12,91.46,69.09,91.46,69.07z"/>
		<path class="st1" d="M164.4,69.14c0-0.03,0-0.06,0-0.08c0-19.79-16.33-35.84-36.47-35.84c-20.14,0-36.47,16.05-36.47,35.84
			c0,0.01,0,0.01,0,0.02c0,0.02,0,0.04,0,0.06c-0.04,0.28-0.07,0.57-0.07,0.86c0,0,0,1.9,0,5.27c0,2.97,2.42,5.37,5.41,5.37h4.58
			c2.99,0,5.41-2.4,5.41-5.37v-0.43c0-11.74,9.46-21.26,21.13-21.26c11.67,0,20.38,9.54,21.13,21.26
			c1.74,27.19-23.58,26.6-34.85,26.6c-4.38,0-17.54,0-17.54,0c-2.92,0-5.28,2.38-5.28,5.31c0,0,0,53.21,0,95.74
			c0,2.93,2.36,5.31,5.28,5.31h62.52c2.92,0,5.28-2.38,5.28-5.31v-95.74V70C164.47,69.71,164.44,69.42,164.4,69.14z"/>
	</g>
</g>
<path class="st0" d="M140.12,184.1l-23.94-39.15l0.22,39.15h-8.15v-55.09h7.49l23.94,39.15l-0.22-39.15h8.15v55.09H140.12z"/>
</svg>
