<?xml version="1.0" encoding="utf-8"?>
<!-- Generator: Adobe Illustrator 26.1.0, SVG Export Plug-In . SVG Version: 6.00 Build 0)  -->
<svg version="1.1" id="Layer_1" xmlns="http://www.w3.org/2000/svg" xmlns:xlink="http://www.w3.org/1999/xlink" x="0px" y="0px"
	 viewBox="0 0 165.9 396.2" style="enable-background:new 0 0 165.9 396.2;" xml:space="preserve">
<style type="text/css">
	.st0{fill:#F05F22;}
	.st1{fill:none;}
	.st2{fill:#FFFFFF;}
	.st3{font-family:'FuturaBT-ExtraBlackCondItalic';}
	.st4{font-size:65px;}
	.st5{letter-spacing:-1;}
	.st6{font-family:'OpenSansCondensed-ExtraBold';}
	.st7{font-size:38px;}
</style>
<g>
	<g>
		<path class="st0" d="M0.2,81.4C0.1,82,0,82.7,0,83.3v0.2c0-0.7,0.1-1.3,0.2-2C0.2,81.5,0.2,81.4,0.2,81.4z"/>
		<path class="st0" d="M165.7,81.5c0-0.1,0-0.1,0-0.2c0-44.9-37-81.3-82.8-81.3C37.2,0,0.2,36.4,0.2,81.3c0,0,0,0,0,0.1
			c0,0.1,0,0.1,0,0.1c-0.1,0.6-0.2,1.3-0.2,2c0,0,0,4.3,0,12c0,6.7,5.5,12.2,12.3,12.2h10.4c6.8,0,12.3-5.4,12.3-12.2v-1
			c0-26.6,21.5-48.2,48-48.2s46.3,21.6,48,48.2c3.9,61.7-53.5,60.4-79.1,60.4c-10,0-39.8,0-39.8,0c-6.6,0-12,5.4-12,12.1
			c0,0,0,120.7,0,217.3c0,6.7,5.4,12.1,12,12.1h141.9c6.6,0,12-5.4,12-12.1V166.9V83.5C165.9,82.8,165.8,82.2,165.7,81.5z"/>
	</g>
</g>
<rect x="6.9" y="222.5" class="st1" width="153" height="79.9"/>
<text transform="matrix(1 0 0 1 7.0053 273.0327)" class="st2 st3 st4 st5">HOTEL</text>
<rect x="5.9" y="286.9" class="st1" width="153.9" height="74"/>
<text transform="matrix(1 0 0 1 6.3896 315.7375)" class="st2 st6 st7">OLIGARCH</text>
</svg>
