<?xml version="1.0" encoding="utf-8"?>
<!-- Generator: Adobe Illustrator 26.1.0, SVG Export Plug-In . SVG Version: 6.00 Build 0)  -->
<svg version="1.1" id="Layer_1" xmlns="http://www.w3.org/2000/svg" xmlns:xlink="http://www.w3.org/1999/xlink" x="0px" y="0px"
	 viewBox="0 0 165.9 396.2" style="enable-background:new 0 0 165.9 396.2;" xml:space="preserve">
<style type="text/css">
	.st0{fill:#F05F22;}
	.st1{fill:none;}
	.st2{enable-background:new    ;}
	.st3{fill:#FFFFFF;}
</style>
<g>
	<g>
		<path class="st0" d="M0.2,81.4C0.1,82,0,82.7,0,83.3v0.2C0,82.8,0.1,82.2,0.2,81.4L0.2,81.4z"/>
		<path class="st0" d="M165.7,81.5c0-0.1,0-0.1,0-0.2c0-44.9-37-81.3-82.8-81.3C37.2,0,0.2,36.4,0.2,81.3c0,0,0,0,0,0.1s0,0.1,0,0.1
			c-0.1,0.6-0.2,1.3-0.2,2c0,0,0,4.3,0,12c0,6.7,5.5,12.2,12.3,12.2h10.4c6.8,0,12.3-5.4,12.3-12.2v-1c0-26.6,21.5-48.2,48-48.2
			s46.3,21.6,48,48.2c3.9,61.7-53.5,60.4-79.1,60.4c-10,0-39.8,0-39.8,0c-6.6,0-12,5.4-12,12.1c0,0,0,120.7,0,217.3
			c0,6.7,5.4,12.1,12,12.1H154c6.6,0,12-5.4,12-12.1V166.9V83.5C165.9,82.8,165.8,82.2,165.7,81.5z"/>
	</g>
</g>
<rect x="6.9" y="222.5" class="st1" width="153" height="79.9"/>
<g class="st2">
	<path class="st3" d="M7.9,276.5l7.4-46.3h12.9L25.5,247h5.4l2.6-16.8h12.9l-7.3,46.3h-13l2.9-18.1h-5.3l-2.8,18.1H7.9z"/>
	<path class="st3" d="M59.7,277.5c-4.4,0-7.9-1.6-10.6-4.8s-4-7.4-4-12.7c0-4.3,0.6-8.5,1.7-12.5c1.1-4.1,2.6-7.5,4.5-10.2
		s4-4.7,6.5-6c2.4-1.3,5.2-2,8.4-2c4.5,0,8,1.6,10.6,4.7c2.6,3.1,3.9,7.4,3.9,12.7c0,4.3-0.6,8.5-1.7,12.5c-1.1,4-2.6,7.4-4.5,10.3
		c-1.8,2.6-3.9,4.6-6.4,5.9S62.8,277.5,59.7,277.5z M58.1,261.1c0,1.7,0.2,3,0.7,3.8s1.2,1.2,2.2,1.2c0.9,0,1.7-0.4,2.4-1.1
		c0.7-0.7,1.3-1.9,1.8-3.5c0.7-2.1,1.3-4.5,1.7-7.4s0.7-5.7,0.7-8.3c0-1.7-0.2-3-0.7-3.8c-0.4-0.8-1.1-1.2-2.1-1.2
		c-1,0-1.8,0.4-2.5,1.1c-0.7,0.7-1.3,1.8-1.8,3.4c-0.7,2.1-1.3,4.7-1.7,7.6C58.3,255.8,58.1,258.5,58.1,261.1z"/>
	<path class="st3" d="M98,276.5H85l5.5-34.6h-7.7l1.9-11.7h28.4l-1.9,11.7h-7.7L98,276.5z"/>
	<path class="st3" d="M108.9,276.5l7.4-46.3h22.9l-1.8,11.2h-10l-1,5.9h9l-1.7,10.9h-9l-1,6.4h10l-1.9,12L108.9,276.5L108.9,276.5z"
		/>
	<path class="st3" d="M135.3,276.5l7.4-46.3h13l-5.5,34.8h9.5l-1.8,11.5H135.3z"/>
</g>
<rect x="5.9" y="286.9" class="st1" width="153.9" height="74"/>
<g class="st2">
	<path class="st3" d="M26.1,302.6c0,2.3-0.2,4.3-0.7,6c-0.4,1.7-1.1,3.2-2,4.4s-1.9,2.1-3.2,2.7c-1.3,0.6-2.8,0.9-4.4,0.9
		c-1.7,0-3.1-0.3-4.4-0.9c-1.3-0.6-2.4-1.5-3.2-2.7c-0.9-1.2-1.5-2.6-2-4.4s-0.7-3.8-0.7-6c0-3,0.4-5.6,1.2-7.6
		c0.8-2.1,1.9-3.6,3.5-4.7c1.5-1.1,3.4-1.6,5.7-1.6s4.1,0.5,5.7,1.6c1.5,1.1,2.7,2.6,3.5,4.7C25.7,297,26.1,299.6,26.1,302.6z
		 M12.2,302.6c0,1.8,0.1,3.4,0.4,4.6c0.3,1.2,0.7,2.2,1.2,2.8c0.5,0.6,1.2,0.9,2,0.9s1.5-0.3,2-0.9c0.5-0.6,0.9-1.5,1.2-2.7
		c0.3-1.2,0.4-2.8,0.4-4.7c0-2.9-0.3-5-0.9-6.4c-0.6-1.4-1.5-2.1-2.7-2.1c-0.8,0-1.5,0.3-2,0.9c-0.5,0.6-0.9,1.6-1.2,2.8
		C12.3,299.2,12.2,300.8,12.2,302.6z"/>
	<path class="st3" d="M29.8,316.2v-27.1h6.5v21.6h7.1v5.5H29.8z"/>
	<path class="st3" d="M46.1,316.2v-27.1h6.5v27.1H46.1z"/>
	<path class="st3" d="M66,300.4h9.5V315c-1.4,0.6-2.8,1-4.3,1.2c-1.5,0.3-2.9,0.4-4.5,0.4c-2.2,0-4.1-0.5-5.7-1.6
		c-1.6-1.1-2.7-2.7-3.6-4.8c-0.8-2.1-1.2-4.6-1.2-7.6c0-2.9,0.5-5.4,1.4-7.5c0.9-2.1,2.3-3.7,4-4.8c1.7-1.1,3.8-1.7,6.3-1.7
		c1.4,0,2.7,0.2,3.9,0.5c1.2,0.3,2.3,0.7,3.2,1.2l-1.8,5.3c-0.7-0.5-1.5-0.8-2.4-1.1c-0.8-0.2-1.7-0.4-2.7-0.4c-1.2,0-2.1,0.3-2.9,1
		s-1.4,1.6-1.7,2.9s-0.6,2.8-0.6,4.6s0.2,3.3,0.5,4.5s0.8,2.2,1.4,2.8s1.4,0.9,2.3,0.9c0.3,0,0.7,0,1-0.1c0.3-0.1,0.7-0.1,1-0.2v-5
		h-3.1C66.1,305.5,66.1,300.4,66,300.4z"/>
	<path class="st3" d="M92.2,316.2l-1-5.3h-5.9l-1,5.3h-7l6.6-27.1h8.5l6.7,27.1H92.2z M90.2,305.4l-1.1-6.1c-0.1-0.7-0.2-1.3-0.3-2
		c-0.1-0.6-0.2-1.3-0.3-1.8c-0.1-0.6-0.2-1.1-0.2-1.6c0,0.5-0.1,1-0.2,1.6c-0.1,0.6-0.2,1.2-0.3,1.8c-0.1,0.6-0.2,1.3-0.4,2
		l-1.2,6.1H90.2z"/>
	<path class="st3" d="M108.7,289.1c2.1,0,3.9,0.3,5.3,0.9c1.4,0.6,2.4,1.5,3.1,2.7s1,2.7,1,4.5c0,1.1-0.1,2-0.4,2.9
		c-0.3,0.9-0.7,1.7-1.2,2.4s-1.2,1.4-2.1,1.9l5.7,11.8H113l-4.2-10.2H108v10.2h-6.5v-27.1H108.7L108.7,289.1z M108.6,294.5h-0.7v6.5
		h0.7c1,0,1.7-0.3,2.2-0.9c0.5-0.6,0.7-1.5,0.7-2.7c0-1-0.2-1.7-0.7-2.2C110.2,294.8,109.5,294.5,108.6,294.5z"/>
	<path class="st3" d="M132,294.3c-0.6,0-1.2,0.2-1.7,0.6c-0.5,0.4-0.9,1-1.2,1.7s-0.6,1.6-0.8,2.7c-0.2,1.1-0.3,2.2-0.3,3.6
		c0,1.8,0.2,3.4,0.5,4.6s0.8,2.1,1.4,2.7c0.6,0.6,1.4,0.9,2.4,0.9c0.9,0,1.7-0.2,2.5-0.5s1.6-0.7,2.4-1.2v5.8
		c-0.9,0.5-1.8,0.9-2.8,1.1s-2.1,0.4-3.2,0.4c-2.2,0-4-0.5-5.4-1.6c-1.5-1.1-2.6-2.6-3.4-4.7c-0.8-2.1-1.1-4.6-1.1-7.6
		c0-2.1,0.2-4,0.7-5.7s1.1-3.2,2-4.4s1.9-2.2,3.2-2.9c1.2-0.7,2.7-1,4.2-1c1.2,0,2.4,0.2,3.5,0.5s2.2,0.8,3.3,1.4l-1.7,5.3
		c-0.7-0.5-1.4-0.9-2.2-1.2C133.6,294.4,132.8,294.3,132,294.3z"/>
	<path class="st3" d="M160,316.2h-6.4v-11.3h-5.7v11.3h-6.5v-27.1h6.5v10.3h5.7v-10.3h6.5v27.1H160z"/>
</g>
</svg>
