<?xml version="1.0" encoding="utf-8"?>
<!-- Generator: Adobe Illustrator 26.1.0, SVG Export Plug-In . SVG Version: 6.00 Build 0)  -->
<svg version="1.1" id="Layer_1" xmlns="http://www.w3.org/2000/svg" xmlns:xlink="http://www.w3.org/1999/xlink" x="0px" y="0px"
	 viewBox="0 0 165.9 396.2" style="enable-background:new 0 0 165.9 396.2;" xml:space="preserve">
<style type="text/css">
	.st0{fill:#F05F22;}
	.st1{fill:none;}
	.st2{enable-background:new    ;}
	.st3{fill:#FFFFFF;}
</style>
<g>
	<g>
		<path class="st0" d="M0.2,81.4C0.1,82,0,82.7,0,83.3v0.2C0,82.8,0.1,82.2,0.2,81.4L0.2,81.4z"/>
		<path class="st0" d="M165.7,81.5c0-0.1,0-0.1,0-0.2c0-44.9-37-81.3-82.8-81.3C37.2,0,0.2,36.4,0.2,81.3c0,0,0,0,0,0.1s0,0.1,0,0.1
			c-0.1,0.6-0.2,1.3-0.2,2c0,0,0,4.3,0,12c0,6.7,5.5,12.2,12.3,12.2h10.4c6.8,0,12.3-5.4,12.3-12.2v-1c0-26.6,21.5-48.2,48-48.2
			s46.3,21.6,48,48.2c3.9,61.7-53.5,60.4-79.1,60.4c-10,0-39.8,0-39.8,0c-6.6,0-12,5.4-12,12.1c0,0,0,120.7,0,217.3
			c0,6.7,5.4,12.1,12,12.1H154c6.6,0,12-5.4,12-12.1V166.9V83.5C165.9,82.8,165.8,82.2,165.7,81.5z"/>
	</g>
</g>
<rect x="6.9" y="222.5" class="st1" width="153" height="79.9"/>
<g class="st2">
	<path class="st3" d="M6,273l7.4-46.3h12.9l-2.7,16.8H29l2.6-16.8h12.9L37.2,273H24.2l2.9-18.1h-5.3L19,273H6z"/>
	<path class="st3" d="M57.8,274c-4.4,0-7.9-1.6-10.6-4.8s-4-7.4-4-12.7c0-4.3,0.6-8.5,1.7-12.5c1.1-4.1,2.6-7.5,4.5-10.2
		c1.9-2.7,4-4.7,6.5-6c2.4-1.3,5.2-2,8.4-2c4.5,0,8,1.6,10.6,4.7c2.6,3.1,3.9,7.4,3.9,12.7c0,4.3-0.6,8.5-1.7,12.5
		c-1.1,4-2.6,7.4-4.5,10.3c-1.8,2.6-3.9,4.6-6.4,5.9S60.9,274,57.8,274z M56.2,257.6c0,1.7,0.2,3,0.7,3.8c0.5,0.8,1.2,1.2,2.2,1.2
		c0.9,0,1.7-0.4,2.4-1.1c0.7-0.7,1.3-1.9,1.8-3.5c0.7-2.1,1.3-4.5,1.7-7.4s0.7-5.7,0.7-8.3c0-1.7-0.2-3-0.7-3.8
		c-0.4-0.8-1.1-1.2-2.1-1.2c-1,0-1.8,0.4-2.5,1.1c-0.7,0.7-1.3,1.8-1.8,3.4c-0.7,2.1-1.3,4.7-1.7,7.6
		C56.4,252.3,56.2,255,56.2,257.6z"/>
	<path class="st3" d="M96.1,273h-13l5.5-34.6h-7.7l1.9-11.7h28.4l-1.9,11.7h-7.7L96.1,273z"/>
	<path class="st3" d="M107,273l7.4-46.3h22.9l-1.8,11.2h-10l-1,5.9h9l-1.7,10.9h-9l-1,6.4h10l-1.9,12H107z"/>
	<path class="st3" d="M133.4,273l7.4-46.3h13l-5.5,34.8h9.5l-1.8,11.5H133.4z"/>
</g>
<rect x="5.9" y="286.9" class="st1" width="153.9" height="74"/>
<g class="st2">
	<path class="st3" d="M28.5,302.1c0,2.3-0.2,4.3-0.7,6c-0.4,1.7-1.1,3.2-2,4.4c-0.9,1.2-1.9,2.1-3.2,2.7c-1.3,0.6-2.8,0.9-4.4,0.9
		c-1.7,0-3.1-0.3-4.4-0.9c-1.3-0.6-2.4-1.5-3.2-2.7c-0.9-1.2-1.5-2.6-2-4.4s-0.7-3.8-0.7-6c0-3,0.4-5.6,1.2-7.6
		c0.8-2.1,1.9-3.6,3.5-4.7c1.5-1.1,3.4-1.6,5.7-1.6c2.3,0,4.1,0.5,5.7,1.6c1.5,1.1,2.7,2.6,3.5,4.7
		C28.1,296.5,28.5,299.1,28.5,302.1z M14.6,302.1c0,1.8,0.1,3.4,0.4,4.6c0.3,1.2,0.7,2.2,1.2,2.8c0.5,0.6,1.2,0.9,2,0.9
		c0.8,0,1.5-0.3,2-0.9c0.5-0.6,0.9-1.5,1.2-2.7c0.3-1.2,0.4-2.8,0.4-4.7c0-2.9-0.3-5-0.9-6.4c-0.6-1.4-1.5-2.1-2.7-2.1
		c-0.8,0-1.5,0.3-2,0.9c-0.5,0.6-0.9,1.6-1.2,2.8C14.7,298.7,14.6,300.3,14.6,302.1z"/>
	<path class="st3" d="M32.2,315.7v-27.1h6.5v21.6h7.1v5.5H32.2z"/>
	<path class="st3" d="M48.5,315.7v-27.1H55v27.1H48.5z"/>
	<path class="st3" d="M68.4,299.9h9.5v14.6c-1.4,0.6-2.8,1-4.3,1.2c-1.5,0.3-2.9,0.4-4.5,0.4c-2.2,0-4.1-0.5-5.7-1.6
		c-1.6-1.1-2.7-2.7-3.6-4.8c-0.8-2.1-1.2-4.6-1.2-7.6c0-2.9,0.5-5.4,1.4-7.5c0.9-2.1,2.3-3.7,4-4.8c1.7-1.1,3.8-1.7,6.3-1.7
		c1.4,0,2.7,0.2,3.9,0.5c1.2,0.3,2.3,0.7,3.2,1.2l-1.8,5.3c-0.7-0.5-1.5-0.8-2.4-1.1c-0.8-0.2-1.7-0.4-2.7-0.4c-1.2,0-2.1,0.3-2.9,1
		c-0.8,0.7-1.4,1.6-1.7,2.9s-0.6,2.8-0.6,4.6c0,1.8,0.2,3.3,0.5,4.5c0.3,1.2,0.8,2.2,1.4,2.8s1.4,0.9,2.3,0.9c0.3,0,0.7,0,1-0.1
		c0.3-0.1,0.7-0.1,1-0.2v-5h-3.1V299.9z"/>
	<path class="st3" d="M94.6,315.7l-1-5.3h-5.9l-1,5.3h-7l6.6-27.1h8.5l6.7,27.1H94.6z M92.6,304.9l-1.1-6.1c-0.1-0.7-0.2-1.3-0.3-2
		c-0.1-0.6-0.2-1.3-0.3-1.8c-0.1-0.6-0.2-1.1-0.2-1.6c0,0.5-0.1,1-0.2,1.6c-0.1,0.6-0.2,1.2-0.3,1.8c-0.1,0.6-0.2,1.3-0.4,2
		l-1.2,6.1H92.6z"/>
	<path class="st3" d="M111.1,288.6c2.1,0,3.9,0.3,5.3,0.9c1.4,0.6,2.4,1.5,3.1,2.7c0.7,1.2,1,2.7,1,4.5c0,1.1-0.1,2-0.4,2.9
		c-0.3,0.9-0.7,1.7-1.2,2.4c-0.5,0.7-1.2,1.4-2.1,1.9l5.7,11.8h-7.1l-4.2-10.2h-0.8v10.2h-6.5v-27.1H111.1z M111,294h-0.7v6.5h0.7
		c1,0,1.7-0.3,2.2-0.9s0.7-1.5,0.7-2.7c0-1-0.2-1.7-0.7-2.2C112.6,294.3,111.9,294,111,294z"/>
	<path class="st3" d="M134.4,293.8c-0.6,0-1.2,0.2-1.7,0.6c-0.5,0.4-0.9,1-1.2,1.7c-0.3,0.7-0.6,1.6-0.8,2.7
		c-0.2,1.1-0.3,2.2-0.3,3.6c0,1.8,0.2,3.4,0.5,4.6s0.8,2.1,1.4,2.7c0.6,0.6,1.4,0.9,2.4,0.9c0.9,0,1.7-0.2,2.5-0.5s1.6-0.7,2.4-1.2
		v5.8c-0.9,0.5-1.8,0.9-2.8,1.1s-2.1,0.4-3.2,0.4c-2.2,0-4-0.5-5.4-1.6c-1.5-1.1-2.6-2.6-3.4-4.7c-0.8-2.1-1.1-4.6-1.1-7.6
		c0-2.1,0.2-4,0.7-5.7c0.5-1.7,1.1-3.2,2-4.4c0.9-1.2,1.9-2.2,3.2-2.9c1.2-0.7,2.7-1,4.2-1c1.2,0,2.4,0.2,3.5,0.5
		c1.1,0.3,2.2,0.8,3.3,1.4l-1.7,5.3c-0.7-0.5-1.4-0.9-2.2-1.2C136,293.9,135.2,293.8,134.4,293.8z"/>
	<path class="st3" d="M162.4,315.7H156v-11.3h-5.7v11.3h-6.5v-27.1h6.5v10.3h5.7v-10.3h6.5V315.7z"/>
</g>
</svg>
