<?xml version="1.0" encoding="utf-8"?>
<!-- Generator: Adobe Illustrator 23.0.3, SVG Export Plug-In . SVG Version: 6.00 Build 0)  -->
<svg version="1.1" id="Layer_1" xmlns="http://www.w3.org/2000/svg" xmlns:xlink="http://www.w3.org/1999/xlink" x="0px" y="0px"
	 viewBox="0 0 165.85 396.24" style="enable-background:new 0 0 165.85 396.24;" xml:space="preserve">
<style type="text/css">
	.st0{fill:#F05F22;}
	.st1{fill:#FFFFFF;}
</style>
<g>
	<g>
		<path class="st0" d="M0.17,81.38C0.07,82.01,0,82.65,0,83.3v0.17c0-0.67,0.07-1.32,0.17-1.96C0.17,81.47,0.17,81.42,0.17,81.38z"
			/>
		<path class="st0" d="M165.68,81.52c0-0.06,0-0.13,0-0.19C165.68,36.41,128.63,0,82.92,0C37.22,0,0.17,36.41,0.17,81.33
			c0,0.02,0,0.03,0,0.05c0,0.05,0,0.09,0,0.14C0.07,82.16,0,82.81,0,83.48c0,0,0,4.32,0,11.97c0,6.73,5.5,12.18,12.29,12.18h10.4
			c6.78,0,12.29-5.45,12.29-12.18v-0.97c0-26.64,21.47-48.24,47.96-48.24c26.49,0,46.26,21.65,47.96,48.24
			c3.95,61.71-53.5,60.37-79.09,60.37c-9.95,0-39.81,0-39.81,0c-6.62,0-11.99,5.4-11.99,12.06c0,0,0,120.74,0,217.27
			c0,6.66,5.37,12.06,11.99,12.06h141.87c6.62,0,11.99-5.4,11.99-12.06V166.91V83.48C165.85,82.81,165.78,82.16,165.68,81.52z"/>
	</g>
</g>
<g>
	<path class="st1" d="M37.19,326.22v-15.28H23.4v15.28h-5.08V292.2h5.08v14.06h13.79V292.2h5.08v34.02H37.19z"/>
	<path class="st1" d="M47.34,309.21c0-9.62,2.18-17.55,13.11-17.55c10.93,0,13.11,7.94,13.11,17.55s-2.18,17.55-13.11,17.55
		C49.52,326.77,47.34,318.83,47.34,309.21z M52.56,309.21c0,8.07,1.45,12.93,7.89,12.93c6.44,0,7.89-4.85,7.89-12.93
		s-1.45-12.93-7.89-12.93C54.01,296.29,52.56,301.14,52.56,309.21z"/>
	<path class="st1" d="M89.21,296.88v29.34h-5.08v-29.34h-8.84v-4.67h22.77v4.67H89.21z"/>
	<path class="st1" d="M121.27,310.94h-14.15v10.61h15.6v4.67h-20.68V292.2h20.68v4.67h-15.6v9.39h14.15V310.94z"/>
	<path class="st1" d="M132.74,321.55h14.79v4.67h-19.87V292.2h5.08V321.55z"/>
</g>
<g>
	<path class="st1" d="M17.37,279.36l9.58-59.95h15.49l5.38,32.19l5.63-32.19h14.06l-9.41,59.95H42.68l-5.71-31.04l-5.3,31.04H17.37z
		"/>
	<path class="st1" d="M65.94,279.36l9.52-59.95h29.66l-2.3,14.54H89.9l-1.27,7.64h11.69l-2.17,14.04H86.45l-1.35,8.25h12.96
		l-2.46,15.48H65.94z"/>
	<path class="st1" d="M101.46,279.36l9.53-59.95h14.13c5.45,0,9.84,0.41,13.16,1.23c3.33,0.82,5.86,2.35,7.6,4.58
		c1.74,2.23,2.61,5.43,2.61,9.59c0,4.96-1.05,8.99-3.16,12.09c-2.11,3.11-5.17,5.18-9.2,6.22l7.39,26.24h-17.74L122,255.13
		l-3.78,24.23H101.46z M123.52,246.13h0.9c2.55,0,4.5-0.81,5.87-2.42c1.37-1.61,2.05-3.91,2.05-6.9c0-1.75-0.43-3.03-1.29-3.84
		c-0.86-0.81-2.22-1.21-4.09-1.21c-0.25,0-0.45,0.01-0.62,0.02c-0.16,0.01-0.36,0.03-0.57,0.06L123.52,246.13z"/>
</g>
</svg>
