<?xml version="1.0" encoding="utf-8"?>
<!-- Generator: Adobe Illustrator 23.0.3, SVG Export Plug-In . SVG Version: 6.00 Build 0)  -->
<svg version="1.1" id="Layer_1" xmlns="http://www.w3.org/2000/svg" xmlns:xlink="http://www.w3.org/1999/xlink" x="0px" y="0px"
	 viewBox="0 0 794 519.83" style="enable-background:new 0 0 794 519.83;" xml:space="preserve">
<style type="text/css">
	.st0{fill:#DBDCDD;}
	.st1{fill:#FFFFFF;}
	.st2{fill:#404041;}
	.st3{fill:#D0D2D3;}
	.st4{fill:#6D6E70;}
	.st5{fill:#231F20;}
	.st6{fill:#E29025;}
	.st7{fill:#A6A8AB;}
	.st8{opacity:0.42;fill:#6D6E70;}
	.st9{enable-background:new    ;}
	.st10{fill:#F0F8FC;}
	.st11{fill:#929497;}
	.st12{fill:#F05F22;}
</style>
<polygon class="st0" points="232.88,371.23 271.54,393.55 624.38,188.5 585.72,166.18 "/>
<polygon class="st0" points="716.55,359.51 678,381.91 476.69,264.91 515.35,242.58 "/>
<polygon class="st0" points="239.85,340.86 201.31,363.26 0,246.27 38.66,223.94 "/>
<polygon class="st0" points="532.85,211.44 511.41,223.89 376.7,145.56 398.14,133.1 "/>
<g>
	<g>
		<g>
			<g>
				<polygon class="st1" points="634.19,243.69 676.02,219.44 675.93,249.72 634.11,273.97 				"/>
			</g>
			<g>
				<polygon class="st2" points="640.73,249.98 653.52,242.49 653.49,255.71 640.69,263.2 				"/>
				<polygon class="st2" points="659.27,239.81 672.06,232.31 672.03,245.53 659.23,253.03 				"/>
			</g>
			<polygon class="st3" points="676.02,219.43 634.19,243.7 634.1,273.97 618.67,265.05 614.34,262.55 602.83,255.92 598.5,253.43 
				593.37,250.46 593.45,219.58 635.28,195.91 			"/>
			<g>
				<polygon class="st2" points="593.45,219.65 638.04,193.9 657.03,190.14 612.59,215.91 				"/>
			</g>
			<g>
				<polygon class="st4" points="612.59,215.91 657.03,190.14 678.63,219.44 634.19,245.21 				"/>
			</g>
			<g>
				<polygon class="st5" points="618.67,265.05 614.34,262.55 602.83,255.92 602.78,233.34 618.63,242.89 				"/>
			</g>
		</g>
		<g>
			<g>
				<polygon class="st1" points="674.92,267.15 716.75,242.89 716.66,273.18 674.83,297.43 				"/>
			</g>
			<g>
				<polygon class="st2" points="681.46,273.44 694.25,265.94 694.21,279.16 681.42,286.65 				"/>
				<polygon class="st2" points="700,263.26 712.79,255.77 712.75,268.99 699.96,276.48 				"/>
			</g>
			<polygon class="st3" points="716.75,242.88 674.91,267.16 674.83,297.43 659.4,288.5 655.07,286.01 643.56,279.37 639.23,276.89 
				634.09,273.92 634.18,243.63 676,219.36 			"/>
			<g>
				<polygon class="st2" points="634.14,243.63 676.06,217.89 697.76,213.59 653.31,239.37 				"/>
			</g>
			<g>
				<polygon class="st4" points="653.31,239.37 697.76,213.59 719.36,242.89 674.91,268.66 				"/>
			</g>
			<g>
				<polygon class="st5" points="659.4,288.5 655.07,286.01 643.56,279.37 643.51,256.79 659.36,266.34 				"/>
			</g>
		</g>
		<g>
			<g>
				<polygon class="st1" points="715.62,290.6 757.45,266.35 757.36,296.63 715.53,320.88 				"/>
			</g>
			<g>
				<polygon class="st2" points="722.16,296.89 734.95,289.4 734.91,302.62 722.12,310.11 				"/>
				<polygon class="st2" points="740.7,286.72 753.49,279.23 753.45,292.45 740.66,299.94 				"/>
			</g>
			<polygon class="st3" points="757.45,266.34 715.61,290.62 715.53,320.88 700.1,311.96 695.77,309.46 684.26,302.83 
				679.93,300.34 674.8,297.37 674.88,266.49 716.7,242.82 			"/>
			<g>
				<polygon class="st2" points="674.88,266.57 719.46,240.81 738.46,237.05 694.01,262.82 				"/>
			</g>
			<g>
				<polygon class="st4" points="694.01,262.82 738.46,237.05 760.06,266.35 715.61,292.12 				"/>
			</g>
			<g>
				<polygon class="st5" points="700.1,311.96 695.77,309.46 684.26,302.83 684.21,280.25 700.06,289.8 				"/>
			</g>
		</g>
	</g>
	<g>
		<g>
			<polygon class="st3" points="739.44,241.95 739.41,261.48 729.74,248.31 729.77,236.36 			"/>
		</g>
		<g>
			<polygon class="st1" points="739.44,241.95 748.96,236.42 748.92,255.95 739.41,261.48 			"/>
		</g>
		<g>
			<polygon class="st6" points="729.77,236.36 739.29,230.83 748.96,236.42 739.44,241.95 			"/>
		</g>
		<g>
			<polygon class="st2" points="748.96,236.42 739.44,241.95 729.77,236.36 739.29,230.83 			"/>
		</g>
	</g>
	<g>
		<g>
			<polygon class="st3" points="695.91,218.7 695.87,238.23 686.2,225.06 686.24,213.12 			"/>
		</g>
		<g>
			<polygon class="st1" points="695.91,218.7 705.42,213.17 705.39,232.7 695.87,238.23 			"/>
		</g>
		<g>
			<polygon class="st6" points="686.24,213.12 695.75,207.59 705.42,213.17 695.91,218.7 			"/>
		</g>
		<g>
			<polygon class="st2" points="705.42,213.17 695.91,218.7 686.24,213.12 695.75,207.59 			"/>
		</g>
	</g>
	<g>
		<g>
			<polygon class="st3" points="654.73,195.45 654.7,214.99 645.03,201.81 645.06,189.87 			"/>
		</g>
		<g>
			<polygon class="st1" points="654.73,195.45 664.25,189.92 664.21,209.46 654.7,214.99 			"/>
		</g>
		<g>
			<polygon class="st6" points="645.06,189.87 654.58,184.34 664.25,189.92 654.73,195.45 			"/>
		</g>
		<g>
			<polygon class="st2" points="664.25,189.92 654.73,195.45 645.06,189.87 654.57,184.34 			"/>
		</g>
	</g>
</g>
<g>
	<g>
		<path class="st7" d="M483.28,213.22c3.91,2.26,3.93,5.91,0.05,8.17c-3.88,2.26-10.2,2.26-14.1,0c-3.91-2.26-3.93-5.91-0.05-8.17
			C473.05,210.97,479.37,210.97,483.28,213.22z"/>
	</g>
	<g>
		<rect x="474.18" y="204.67" class="st5" width="3.74" height="13.79"/>
		<path class="st2" d="M488.05,195.4c0,6.24-5.06,11.31-11.31,11.31s-11.31-5.06-11.31-11.31s5.06-11.31,11.31-11.31
			S488.05,189.15,488.05,195.4z"/>
		<path class="st8" d="M474.12,192.1c0,1.75-1.42,3.17-3.17,3.17c-1.75,0-3.17-1.42-3.17-3.17c0-1.75,1.42-3.17,3.17-3.17
			C472.7,188.93,474.12,190.35,474.12,192.1z"/>
		<path class="st8" d="M477.6,188.7c0,0.77-0.62,1.39-1.39,1.39c-0.77,0-1.39-0.62-1.39-1.39c0-0.77,0.62-1.39,1.39-1.39
			C476.97,187.3,477.6,187.93,477.6,188.7z"/>
		<path class="st5" d="M476.74,184.09c-1.41,0-2.75,0.26-3.99,0.73c0.15-0.01,0.3-0.02,0.46-0.02c5,0,9.06,4.06,9.06,9.06
			c0,5-4.06,9.06-9.06,9.06c-2.77,0-5.25-1.25-6.91-3.21c1.7,4.1,5.74,6.99,10.45,6.99c6.24,0,11.31-5.06,11.31-11.31
			S482.98,184.09,476.74,184.09z"/>
	</g>
</g>
<g>
	<g>
		<path class="st7" d="M572.2,249.59c3.91,2.26,3.93,5.91,0.05,8.17c-3.88,2.26-10.2,2.26-14.1,0c-3.91-2.26-3.93-5.91-0.05-8.17
			C561.98,247.33,568.29,247.33,572.2,249.59z"/>
	</g>
	<g>
		<rect x="563.1" y="241.03" class="st5" width="3.74" height="13.79"/>
		<path class="st2" d="M576.97,231.77c0,6.24-5.06,11.31-11.31,11.31c-6.24,0-11.31-5.06-11.31-11.31s5.06-11.31,11.31-11.31
			C571.91,220.46,576.97,225.52,576.97,231.77z"/>
		<circle class="st8" cx="559.87" cy="228.47" r="3.17"/>
		<path class="st8" d="M566.52,225.06c0,0.77-0.62,1.39-1.39,1.39c-0.77,0-1.39-0.62-1.39-1.39c0-0.77,0.62-1.39,1.39-1.39
			C565.9,223.67,566.52,224.3,566.52,225.06z"/>
		<path class="st5" d="M565.66,220.46c-1.41,0-2.75,0.26-3.99,0.73c0.15-0.01,0.3-0.02,0.46-0.02c5,0,9.06,4.06,9.06,9.06
			c0,5.01-4.06,9.06-9.06,9.06c-2.77,0-5.25-1.25-6.91-3.21c1.7,4.1,5.74,6.99,10.45,6.99c6.24,0,11.31-5.06,11.31-11.31
			S571.91,220.46,565.66,220.46z"/>
	</g>
</g>
<g>
	<g>
		<path class="st7" d="M724.35,338.71c3.91,2.26,3.93,5.91,0.05,8.17c-3.88,2.26-10.2,2.26-14.1,0c-3.91-2.26-3.93-5.91-0.05-8.17
			C714.12,336.45,720.44,336.45,724.35,338.71z"/>
	</g>
	<g>
		<rect x="715.25" y="330.15" class="st5" width="3.74" height="13.79"/>
		<path class="st2" d="M729.12,320.88c0,6.24-5.06,11.31-11.31,11.31c-6.24,0-11.31-5.06-11.31-11.31s5.06-11.31,11.31-11.31
			C724.05,309.58,729.12,314.64,729.12,320.88z"/>
		<path class="st8" d="M715.19,317.59c0,1.75-1.42,3.17-3.17,3.17c-1.75,0-3.17-1.42-3.17-3.17s1.42-3.17,3.17-3.17
			C713.77,314.41,715.19,315.83,715.19,317.59z"/>
		<path class="st8" d="M718.67,314.18c0,0.77-0.62,1.39-1.39,1.39c-0.77,0-1.39-0.62-1.39-1.39c0-0.77,0.62-1.39,1.39-1.39
			C718.04,312.79,718.67,313.41,718.67,314.18z"/>
		<path class="st5" d="M717.81,309.58c-1.41,0-2.75,0.26-4,0.73c0.15-0.01,0.3-0.02,0.46-0.02c5.01,0,9.06,4.06,9.06,9.06
			c0,5-4.06,9.06-9.06,9.06c-2.77,0-5.25-1.25-6.91-3.21c1.7,4.1,5.74,6.99,10.45,6.99c6.24,0,11.31-5.06,11.31-11.31
			S724.05,309.58,717.81,309.58z"/>
	</g>
</g>
<g>
	<g>
		<path class="st7" d="M789.23,298.26c3.91,2.26,3.93,5.91,0.05,8.17c-3.88,2.26-10.2,2.26-14.1,0c-3.91-2.26-3.93-5.91-0.05-8.17
			C779.01,296,785.32,296,789.23,298.26z"/>
	</g>
	<g>
		<rect x="780.13" y="289.7" class="st5" width="3.74" height="13.79"/>
		<path class="st2" d="M794,280.44c0,6.24-5.06,11.31-11.31,11.31c-6.24,0-11.31-5.06-11.31-11.31c0-6.24,5.06-11.31,11.31-11.31
			C788.94,269.13,794,274.19,794,280.44z"/>
		<path class="st8" d="M780.07,277.14c0,1.75-1.42,3.17-3.17,3.17c-1.75,0-3.17-1.42-3.17-3.17s1.42-3.17,3.17-3.17
			C778.65,273.97,780.07,275.39,780.07,277.14z"/>
		<path class="st8" d="M783.55,273.73c0,0.77-0.62,1.39-1.39,1.39c-0.77,0-1.39-0.62-1.39-1.39c0-0.77,0.62-1.39,1.39-1.39
			C782.93,272.34,783.55,272.96,783.55,273.73z"/>
		<path class="st5" d="M782.69,269.13c-1.41,0-2.75,0.26-4,0.73c0.15-0.01,0.3-0.02,0.46-0.02c5.01,0,9.06,4.06,9.06,9.06
			c0,5-4.06,9.06-9.06,9.06c-2.77,0-5.25-1.25-6.91-3.21c1.7,4.1,5.74,6.99,10.45,6.99c6.24,0,11.31-5.06,11.31-11.31
			C794,274.19,788.94,269.13,782.69,269.13z"/>
	</g>
</g>
<g>
	<g>
		<path class="st7" d="M659.67,377.26c3.91,2.26,3.93,5.91,0.05,8.17c-3.88,2.26-10.2,2.26-14.1,0c-3.91-2.26-3.93-5.91-0.05-8.17
			C649.45,375,655.77,375,659.67,377.26z"/>
	</g>
	<g>
		<rect x="650.57" y="368.7" class="st5" width="3.74" height="13.79"/>
		<path class="st2" d="M664.44,359.43c0,6.24-5.06,11.31-11.31,11.31c-6.24,0-11.31-5.06-11.31-11.31s5.06-11.31,11.31-11.31
			C659.38,348.13,664.44,353.19,664.44,359.43z"/>
		<path class="st8" d="M650.51,356.14c0,1.75-1.42,3.17-3.17,3.17c-1.75,0-3.17-1.42-3.17-3.17s1.42-3.17,3.17-3.17
			C649.09,352.97,650.51,354.39,650.51,356.14z"/>
		<path class="st8" d="M653.99,352.73c0,0.77-0.62,1.39-1.39,1.39c-0.77,0-1.39-0.62-1.39-1.39c0-0.77,0.62-1.39,1.39-1.39
			C653.37,351.34,653.99,351.96,653.99,352.73z"/>
		<path class="st5" d="M653.14,348.13c-1.41,0-2.75,0.26-4,0.73c0.15-0.01,0.3-0.02,0.46-0.02c5.01,0,9.06,4.06,9.06,9.06
			c0,5-4.06,9.06-9.06,9.06c-2.77,0-5.25-1.25-6.91-3.21c1.7,4.1,5.74,6.99,10.45,6.99c6.24,0,11.31-5.06,11.31-11.31
			C664.44,353.19,659.38,348.13,653.14,348.13z"/>
	</g>
</g>
<g>
	<g>
		<g class="st9">
			<g>
				<polygon class="st4" points="456.3,160.03 374.72,207.44 330.67,182.01 412.25,134.59 				"/>
			</g>
			<g>
				<polygon class="st1" points="456.3,160.03 456.21,211.67 374.63,259.08 374.72,207.44 				"/>
			</g>
			<g>
				<g>
					<polygon class="st2" points="450.5,171.77 450.43,178.35 384.41,216.71 384.48,210.14 					"/>
					<polygon class="st2" points="450.5,185.31 450.43,191.89 384.41,230.25 384.48,223.68 					"/>
					<polygon class="st2" points="450.5,198.85 450.43,205.43 384.41,243.79 384.48,237.22 					"/>
				</g>
			</g>
			<g>
				<polygon class="st3" points="374.72,207.44 374.63,259.08 330.58,233.65 330.67,182.01 				"/>
			</g>
			<g>
				<g>
					<polygon class="st5" points="336.3,193.34 336.3,199.88 369.58,219.21 369.58,212.68 					"/>
					<polygon class="st5" points="336.3,206.88 336.3,213.42 369.58,232.75 369.58,226.22 					"/>
					<polygon class="st5" points="336.3,220.42 336.3,226.96 369.58,246.29 369.58,239.76 					"/>
				</g>
			</g>
		</g>
	</g>
	<g>
		<g>
			<polygon class="st3" points="368.93,188 368.87,195.37 351.26,185.2 351.31,177.83 			"/>
		</g>
		<g>
			<polygon class="st1" points="368.93,188 386.25,177.93 386.19,185.3 368.87,195.37 			"/>
		</g>
		<g>
			<polygon class="st6" points="351.31,177.83 368.64,167.77 386.25,177.93 368.93,188 			"/>
		</g>
		<g>
			<polygon class="st2" points="386.25,177.93 368.93,188 351.31,177.83 368.64,167.77 			"/>
		</g>
	</g>
	<g>
		<g>
			<polygon class="st3" points="413.6,146.38 413.54,168.14 395.93,157.97 395.99,136.21 			"/>
		</g>
		<g>
			<polygon class="st1" points="413.6,146.38 430.93,136.31 430.87,158.07 413.54,168.14 			"/>
		</g>
		<g>
			<polygon class="st6" points="395.99,136.21 413.31,126.15 430.93,136.31 413.6,146.38 			"/>
		</g>
		<g>
			<polygon class="st2" points="430.93,136.32 413.6,146.38 395.99,136.22 413.31,126.15 			"/>
		</g>
	</g>
</g>
<g>
	<g>
		<g class="st9">
			<g>
				<polygon class="st4" points="232.12,176.97 150.53,224.38 106.48,198.95 188.07,151.53 				"/>
			</g>
			<g>
				<polygon class="st1" points="232.12,176.97 232.03,228.61 150.44,276.02 150.53,224.38 				"/>
			</g>
			<g>
				<g>
					<polygon class="st2" points="226.31,188.71 226.24,195.29 160.23,233.65 160.3,227.08 					"/>
					<polygon class="st2" points="226.31,202.25 226.24,208.83 160.23,247.19 160.3,240.62 					"/>
					<polygon class="st2" points="226.31,215.79 226.24,222.37 160.23,260.73 160.3,254.16 					"/>
				</g>
			</g>
			<g>
				<polygon class="st3" points="150.53,224.38 150.44,276.02 106.39,250.59 106.48,198.95 				"/>
			</g>
			<g>
				<g>
					<polygon class="st5" points="112.12,210.28 112.12,216.82 145.39,236.15 145.39,229.62 					"/>
					<polygon class="st5" points="112.12,223.82 112.12,230.36 145.39,249.69 145.39,243.16 					"/>
					<polygon class="st5" points="112.12,237.36 112.12,243.9 145.39,263.23 145.39,256.7 					"/>
				</g>
			</g>
		</g>
	</g>
	<g>
		<g>
			<polygon class="st3" points="144.74,204.94 144.68,212.31 127.07,202.14 127.13,194.77 			"/>
		</g>
		<g>
			<polygon class="st1" points="144.74,204.94 162.07,194.87 162.01,202.24 144.68,212.31 			"/>
		</g>
		<g>
			<polygon class="st6" points="127.13,194.77 144.45,184.71 162.07,194.87 144.74,204.94 			"/>
		</g>
		<g>
			<polygon class="st2" points="162.07,194.87 144.74,204.94 127.13,194.78 144.45,184.71 			"/>
		</g>
	</g>
	<g>
		<g>
			<polygon class="st3" points="189.42,163.32 189.36,185.08 171.75,174.91 171.8,153.15 			"/>
		</g>
		<g>
			<polygon class="st1" points="189.42,163.32 206.74,153.25 206.68,175.01 189.36,185.08 			"/>
		</g>
		<g>
			<polygon class="st6" points="171.8,153.15 189.13,143.09 206.74,153.25 189.42,163.32 			"/>
		</g>
		<g>
			<polygon class="st2" points="206.74,153.26 189.42,163.33 171.8,153.16 189.13,143.09 			"/>
		</g>
	</g>
</g>
<g>
	<g>
		<g>
			<polygon class="st3" points="305.15,202.81 304.99,298.12 256.14,269.91 256.3,174.6 			"/>
		</g>
		<g>
			<g>
				<polygon class="st5" points="295.8,208.13 295.71,216.18 262.45,196.78 262.54,188.72 				"/>
				<polygon class="st5" points="295.8,229.92 295.71,237.98 262.45,218.57 262.54,210.52 				"/>
				<polygon class="st5" points="295.8,251.72 295.71,259.77 262.45,240.37 262.54,232.32 				"/>
				<polygon class="st5" points="295.8,273.51 295.71,281.57 262.45,262.17 262.54,254.11 				"/>
			</g>
		</g>
		<g>
			<polygon class="st1" points="305.15,202.81 353.2,174.88 353.04,270.19 304.99,298.12 			"/>
		</g>
		<g>
			<polygon class="st6" points="256.3,174.6 304.35,146.68 353.2,174.88 305.15,202.81 			"/>
		</g>
		<g>
			<polygon class="st4" points="353.2,174.88 338.2,183.6 324.75,191.42 305.15,202.81 256.29,174.61 275.89,163.21 289.35,155.4 
				304.35,146.68 			"/>
		</g>
		<g>
			<g>
				<polygon class="st2" points="313.19,207.29 313.29,215.35 346.55,195.94 346.46,187.89 				"/>
				<polygon class="st2" points="313.19,229.09 313.29,237.14 346.55,217.74 346.46,209.69 				"/>
				<polygon class="st2" points="313.19,250.89 313.29,258.94 346.55,239.54 346.46,231.48 				"/>
				<polygon class="st2" points="313.19,272.68 313.29,280.74 346.55,261.33 346.46,253.28 				"/>
			</g>
		</g>
	</g>
	<g>
		<g>
			<polygon class="st3" points="305.09,144.88 304.95,195.82 261.9,170.97 262.04,120.03 			"/>
		</g>
		<g>
			<g>
				<polygon class="st5" points="296.85,149.57 296.77,156.67 267.46,139.57 267.54,132.47 				"/>
				<polygon class="st5" points="296.85,168.78 296.77,175.87 267.46,158.78 267.54,151.68 				"/>
			</g>
		</g>
		<g>
			<polygon class="st1" points="305.09,144.88 347.44,120.27 347.3,171.21 304.95,195.82 			"/>
		</g>
		<g>
			<polygon class="st6" points="262.04,120.03 304.39,95.42 347.44,120.27 305.09,144.88 			"/>
		</g>
		<g>
			<polygon class="st4" points="347.44,120.27 334.22,127.95 322.36,134.85 305.09,144.89 262.04,120.03 279.31,109.99 
				291.17,103.11 304.39,95.42 			"/>
		</g>
		<g>
			<g>
				<polygon class="st3" points="304.97,125.09 304.87,137.83 274.41,120.25 274.51,107.51 				"/>
			</g>
			<g>
				<polygon class="st1" points="304.97,125.09 334.93,107.68 334.83,120.42 304.87,137.83 				"/>
			</g>
			<g>
				<polygon class="st6" points="274.51,107.51 304.47,90.09 334.93,107.68 304.97,125.09 				"/>
			</g>
			<g>
				<polygon class="st1" points="334.93,107.68 304.97,125.09 274.51,107.51 304.47,90.09 				"/>
			</g>
		</g>
		<g>
			<g>
				<polygon class="st2" points="312.18,148.83 312.26,155.93 341.57,138.83 341.49,131.74 				"/>
				<polygon class="st2" points="312.18,168.04 312.26,175.14 341.57,158.04 341.49,150.94 				"/>
			</g>
		</g>
	</g>
</g>
<g>
	<g>
		<g>
			<polygon class="st3" points="227.38,235.45 227.2,342.85 172.15,311.07 172.33,203.67 			"/>
		</g>
		<g>
			<polygon class="st1" points="227.38,235.45 281.53,203.98 281.35,311.38 227.2,342.85 			"/>
		</g>
		<g>
			<polygon class="st6" points="172.33,203.67 226.48,172.2 281.53,203.98 227.38,235.45 			"/>
		</g>
		<g>
			<polygon class="st4" points="281.53,203.98 264.63,213.8 249.47,222.62 227.38,235.46 172.33,203.67 194.42,190.84 
				209.58,182.03 226.48,172.2 			"/>
		</g>
	</g>
	<g>
		<polygon class="st3" points="227.2,182.4 227.08,221.24 191.11,200.47 191.22,161.63 		"/>
	</g>
	<g>
		<polygon class="st1" points="227.2,182.4 262.58,161.84 262.46,200.67 227.08,221.24 		"/>
	</g>
	<polygon class="st2" points="237.92,214.93 251.72,206.92 251.75,179.96 237.96,187.97 	"/>
	<g>
		<g>
			<polygon class="st2" points="235.64,242.29 244.08,237.38 244.06,246.89 235.62,251.8 			"/>
			<polygon class="st2" points="235.64,260.22 244.08,255.32 244.06,264.83 235.62,269.73 			"/>
			<polygon class="st2" points="235.64,278.16 244.08,273.26 244.06,282.77 235.62,287.67 			"/>
			<polygon class="st2" points="235.64,296.1 244.08,291.19 244.06,300.7 235.62,305.61 			"/>
			<polygon class="st2" points="235.64,314.03 244.08,309.13 244.06,318.64 235.62,323.54 			"/>
		</g>
		<g>
			<polygon class="st2" points="251.49,233.14 259.93,228.24 259.91,237.75 251.47,242.65 			"/>
			<polygon class="st2" points="251.49,251.08 259.93,246.17 259.91,255.69 251.47,260.59 			"/>
			<polygon class="st2" points="251.49,269.01 259.93,264.11 259.91,273.62 251.47,278.53 			"/>
			<polygon class="st2" points="251.49,286.95 259.93,282.05 259.91,291.56 251.47,296.46 			"/>
			<polygon class="st2" points="251.49,304.89 259.93,299.99 259.91,309.5 251.47,314.4 			"/>
		</g>
		<g>
			<polygon class="st2" points="267.34,224 275.78,219.09 275.76,228.6 267.32,233.51 			"/>
			<polygon class="st2" points="267.34,241.93 275.78,237.03 275.76,246.54 267.32,251.44 			"/>
			<polygon class="st2" points="267.34,259.87 275.78,254.97 275.76,264.48 267.32,269.38 			"/>
			<polygon class="st2" points="267.34,277.81 275.78,272.9 275.76,282.41 267.32,287.32 			"/>
			<polygon class="st2" points="267.34,295.74 275.78,290.84 275.76,300.35 267.32,305.25 			"/>
		</g>
	</g>
	<g>
		<g>
			<polygon class="st5" points="218.74,242.29 210.3,237.38 210.32,246.89 218.76,251.8 			"/>
			<polygon class="st5" points="218.74,260.22 210.3,255.32 210.32,264.83 218.76,269.73 			"/>
			<polygon class="st5" points="218.74,278.16 210.3,273.26 210.32,282.77 218.76,287.67 			"/>
			<polygon class="st5" points="218.74,296.1 210.3,291.19 210.32,300.7 218.76,305.61 			"/>
			<polygon class="st5" points="218.74,314.03 210.3,309.13 210.32,318.64 218.76,323.54 			"/>
		</g>
		<g>
			<polygon class="st5" points="202.89,233.14 194.45,228.24 194.47,237.75 202.91,242.65 			"/>
			<polygon class="st5" points="202.89,251.08 194.45,246.17 194.47,255.69 202.91,260.59 			"/>
			<polygon class="st5" points="202.89,269.01 194.45,264.11 194.47,273.62 202.91,278.53 			"/>
			<polygon class="st5" points="202.89,286.95 194.45,282.05 194.47,291.56 202.91,296.46 			"/>
			<polygon class="st5" points="202.89,304.89 194.45,299.99 194.47,309.5 202.91,314.4 			"/>
		</g>
		<g>
			<polygon class="st5" points="187.04,224 178.6,219.09 178.62,228.6 187.06,233.51 			"/>
			<polygon class="st5" points="187.04,241.93 178.6,237.03 178.62,246.54 187.06,251.44 			"/>
			<polygon class="st5" points="187.04,259.87 178.6,254.97 178.62,264.48 187.06,269.38 			"/>
			<polygon class="st5" points="187.04,277.81 178.6,272.9 178.62,282.41 187.06,287.32 			"/>
			<polygon class="st5" points="187.04,295.74 178.6,290.84 178.62,300.35 187.06,305.25 			"/>
		</g>
	</g>
	<polygon class="st5" points="214.6,214.03 200.81,206.01 200.78,179.05 214.57,187.07 	"/>
	<g>
		<polygon class="st6" points="191.22,161.63 226.61,141.07 262.58,161.84 227.2,182.4 		"/>
	</g>
	<g>
		<polygon class="st4" points="262.58,161.84 251.54,168.25 241.63,174.01 227.2,182.4 191.22,161.63 205.66,153.25 215.56,147.49 
			226.61,141.07 		"/>
	</g>
</g>
<g>
	<g>
		<g>
			<polygon class="st3" points="499.67,80.51 499.52,172.13 452.56,145.02 452.72,53.4 			"/>
		</g>
		<g>
			<polygon class="st1" points="499.67,80.51 545.87,53.67 545.71,145.28 499.52,172.13 			"/>
		</g>
		<g>
			<polygon class="st6" points="452.72,53.4 498.91,26.56 545.87,53.67 499.67,80.51 			"/>
		</g>
		<g>
			<polygon class="st4" points="545.87,53.67 531.45,62.05 518.52,69.56 499.68,80.51 452.71,53.4 471.56,42.45 484.49,34.94 
				498.91,26.56 			"/>
		</g>
	</g>
	<g>
		<polygon class="st3" points="499.52,35.26 499.42,68.39 468.73,50.67 468.83,17.54 		"/>
	</g>
	<g>
		<polygon class="st1" points="499.52,35.26 529.7,17.72 529.6,50.84 499.42,68.39 		"/>
	</g>
	<polygon class="st2" points="508.67,63.01 520.43,56.17 520.46,33.17 508.69,40.01 	"/>
	<g>
		<g>
			<polygon class="st2" points="506.72,86.34 513.92,82.16 513.9,90.27 506.71,94.45 			"/>
			<polygon class="st2" points="506.72,101.64 513.92,97.46 513.9,105.57 506.71,109.75 			"/>
			<polygon class="st2" points="506.72,116.94 513.92,112.76 513.9,120.87 506.71,125.06 			"/>
			<polygon class="st2" points="506.72,132.24 513.92,128.06 513.9,136.17 506.71,140.36 			"/>
			<polygon class="st2" points="506.72,147.54 513.92,143.36 513.9,151.47 506.71,155.66 			"/>
		</g>
		<g>
			<polygon class="st2" points="520.24,78.54 527.44,74.36 527.42,82.47 520.22,86.65 			"/>
			<polygon class="st2" points="520.24,93.84 527.44,89.66 527.42,97.77 520.22,101.95 			"/>
			<polygon class="st2" points="520.24,109.14 527.44,104.96 527.42,113.07 520.22,117.25 			"/>
			<polygon class="st2" points="520.24,124.44 527.44,120.26 527.42,128.37 520.22,132.55 			"/>
			<polygon class="st2" points="520.24,139.74 527.44,135.56 527.42,143.67 520.22,147.86 			"/>
		</g>
		<g>
			<polygon class="st2" points="533.76,70.74 540.96,66.56 540.94,74.67 533.74,78.85 			"/>
			<polygon class="st2" points="533.76,86.04 540.96,81.86 540.94,89.97 533.74,94.15 			"/>
			<polygon class="st2" points="533.76,101.34 540.96,97.16 540.94,105.27 533.74,109.45 			"/>
			<polygon class="st2" points="533.76,116.64 540.96,112.46 540.94,120.57 533.74,124.75 			"/>
			<polygon class="st2" points="533.76,131.94 540.96,127.76 540.94,135.87 533.74,140.05 			"/>
		</g>
	</g>
	<g>
		<g>
			<polygon class="st5" points="492.3,86.34 485.1,82.16 485.12,90.27 492.32,94.45 			"/>
			<polygon class="st5" points="492.3,101.64 485.1,97.46 485.12,105.57 492.32,109.75 			"/>
			<polygon class="st5" points="492.3,116.94 485.1,112.76 485.12,120.87 492.32,125.06 			"/>
			<polygon class="st5" points="492.3,132.24 485.1,128.06 485.12,136.17 492.32,140.36 			"/>
			<polygon class="st5" points="492.3,147.54 485.1,143.36 485.12,151.47 492.32,155.66 			"/>
		</g>
		<g>
			<polygon class="st5" points="478.78,78.54 471.58,74.36 471.6,82.47 478.8,86.65 			"/>
			<polygon class="st5" points="478.78,93.84 471.58,89.66 471.6,97.77 478.8,101.95 			"/>
			<polygon class="st5" points="478.78,109.14 471.58,104.96 471.6,113.07 478.8,117.25 			"/>
			<polygon class="st5" points="478.78,124.44 471.58,120.26 471.6,128.37 478.8,132.55 			"/>
			<polygon class="st5" points="478.78,139.74 471.58,135.56 471.6,143.67 478.8,147.86 			"/>
		</g>
		<g>
			<polygon class="st5" points="465.26,70.74 458.07,66.56 458.08,74.67 465.28,78.85 			"/>
			<polygon class="st5" points="465.26,86.04 458.07,81.86 458.08,89.97 465.28,94.15 			"/>
			<polygon class="st5" points="465.26,101.34 458.07,97.16 458.08,105.27 465.28,109.45 			"/>
			<polygon class="st5" points="465.26,116.64 458.07,112.46 458.08,120.57 465.28,124.75 			"/>
			<polygon class="st5" points="465.26,131.94 458.07,127.76 458.08,135.87 465.28,140.05 			"/>
		</g>
	</g>
	<polygon class="st5" points="488.77,62.24 477.01,55.4 476.98,32.4 488.75,39.24 	"/>
	<g>
		<polygon class="st6" points="468.83,17.54 499.01,0 529.7,17.72 499.52,35.26 		"/>
	</g>
	<g>
		<polygon class="st4" points="529.7,17.72 520.28,23.19 511.83,28.1 499.52,35.26 468.83,17.54 481.14,10.39 489.59,5.48 499.01,0 
					"/>
	</g>
</g>
<g>
	<g>
		<polygon class="st0" points="525.68,434.15 447.86,479.14 298.84,393.11 376.66,348.11 		"/>
	</g>
	<g>
		<g>
			<polygon class="st10" points="464.6,407.06 411.95,437.34 321.25,385.78 373.9,355.5 			"/>
		</g>
		<g>
			<polygon class="st4" points="456.83,407.47 412.63,432.83 329.02,385.37 373.21,360.01 			"/>
		</g>
		<polygon class="st2" points="373.21,366.12 451.48,410.54 456.83,407.47 373.21,360.01 329.02,385.37 334.37,388.41 		"/>
		<g>
			<polygon class="st1" points="464.6,407.06 464.58,414.41 411.93,444.68 411.95,437.34 			"/>
		</g>
		<g>
			<polygon class="st3" points="411.95,437.34 411.93,444.68 321.22,393.12 321.25,385.78 			"/>
		</g>
	</g>
</g>
<g>
	<g>
		<path class="st7" d="M366.07,279.92c3.91,2.26,3.93,5.91,0.05,8.17c-3.88,2.26-10.2,2.26-14.1,0c-3.91-2.26-3.93-5.91-0.05-8.17
			C355.85,277.67,362.16,277.67,366.07,279.92z"/>
	</g>
	<g>
		<rect x="356.97" y="271.37" class="st5" width="3.74" height="13.79"/>
		<circle class="st2" cx="359.53" cy="262.1" r="11.31"/>
		<path class="st8" d="M356.91,258.8c0,1.75-1.42,3.17-3.17,3.17c-1.75,0-3.17-1.42-3.17-3.17c0-1.75,1.42-3.17,3.17-3.17
			C355.49,255.63,356.91,257.05,356.91,258.8z"/>
		<path class="st8" d="M360.39,255.4c0,0.77-0.62,1.39-1.39,1.39c-0.77,0-1.39-0.62-1.39-1.39c0-0.77,0.62-1.39,1.39-1.39
			C359.77,254,360.39,254.63,360.39,255.4z"/>
		<path class="st5" d="M359.53,250.79c-1.41,0-2.75,0.26-4,0.73c0.15-0.01,0.3-0.02,0.46-0.02c5.01,0,9.06,4.06,9.06,9.06
			c0,5.01-4.06,9.06-9.06,9.06c-2.77,0-5.25-1.25-6.91-3.21c1.7,4.1,5.74,6.99,10.45,6.99c6.24,0,11.31-5.06,11.31-11.31
			C370.84,255.85,365.78,250.79,359.53,250.79z"/>
	</g>
</g>
<g>
	<g>
		<path class="st7" d="M445.15,456.82c3.91,2.26,3.93,5.91,0.05,8.17c-3.88,2.26-10.2,2.26-14.1,0c-3.91-2.26-3.93-5.91-0.05-8.17
			C434.93,454.56,441.24,454.56,445.15,456.82z"/>
	</g>
	<g>
		<rect x="436.05" y="448.26" class="st5" width="3.74" height="13.79"/>
		<path class="st2" d="M449.92,438.99c0,6.24-5.06,11.31-11.31,11.31s-11.31-5.06-11.31-11.31s5.06-11.31,11.31-11.31
			S449.92,432.75,449.92,438.99z"/>
		<path class="st8" d="M435.99,435.7c0,1.75-1.42,3.17-3.17,3.17s-3.17-1.42-3.17-3.17c0-1.75,1.42-3.17,3.17-3.17
			S435.99,433.95,435.99,435.7z"/>
		<path class="st8" d="M439.47,432.29c0,0.77-0.62,1.39-1.39,1.39c-0.77,0-1.39-0.62-1.39-1.39c0-0.77,0.62-1.39,1.39-1.39
			C438.85,430.9,439.47,431.52,439.47,432.29z"/>
		<path class="st5" d="M438.61,427.69c-1.41,0-2.75,0.26-3.99,0.73c0.15-0.01,0.3-0.02,0.46-0.02c5,0,9.06,4.06,9.06,9.06
			c0,5.01-4.06,9.06-9.06,9.06c-2.77,0-5.25-1.25-6.91-3.21c1.7,4.1,5.74,6.99,10.45,6.99c6.24,0,11.31-5.06,11.31-11.31
			S444.85,427.69,438.61,427.69z"/>
	</g>
</g>
<g>
	<g>
		<path class="st7" d="M492.13,427.54c3.91,2.26,3.93,5.91,0.05,8.17c-3.88,2.26-10.2,2.26-14.1,0c-3.91-2.26-3.93-5.91-0.05-8.17
			C481.9,425.28,488.22,425.28,492.13,427.54z"/>
	</g>
	<g>
		<rect x="483.02" y="418.98" class="st5" width="3.74" height="13.79"/>
		<circle class="st2" cx="485.59" cy="409.71" r="11.31"/>
		<path class="st8" d="M482.97,406.42c0,1.75-1.42,3.17-3.17,3.17c-1.75,0-3.17-1.42-3.17-3.17c0-1.75,1.42-3.17,3.17-3.17
			C481.55,403.24,482.97,404.66,482.97,406.42z"/>
		<path class="st8" d="M486.45,403.01c0,0.77-0.62,1.39-1.39,1.39c-0.77,0-1.39-0.62-1.39-1.39c0-0.77,0.62-1.39,1.39-1.39
			C485.82,401.62,486.45,402.24,486.45,403.01z"/>
		<path class="st5" d="M485.59,398.41c-1.41,0-2.75,0.26-3.99,0.73c0.15-0.01,0.3-0.02,0.46-0.02c5.01,0,9.06,4.06,9.06,9.06
			c0,5.01-4.06,9.06-9.06,9.06c-2.77,0-5.25-1.25-6.91-3.21c1.7,4.1,5.74,6.99,10.45,6.99c6.24,0,11.31-5.06,11.31-11.31
			S491.83,398.41,485.59,398.41z"/>
	</g>
</g>
<g>
	<g>
		<path class="st7" d="M469.16,442.49c3.91,2.26,3.93,5.91,0.05,8.17c-3.88,2.26-10.2,2.26-14.1,0c-3.91-2.26-3.93-5.91-0.05-8.17
			C458.94,440.24,465.26,440.24,469.16,442.49z"/>
	</g>
	<g>
		<rect x="460.06" y="433.94" class="st5" width="3.74" height="13.79"/>
		<path class="st2" d="M473.93,424.67c0,6.24-5.06,11.31-11.31,11.31s-11.31-5.06-11.31-11.31s5.06-11.31,11.31-11.31
			S473.93,418.43,473.93,424.67z"/>
		<path class="st8" d="M460,421.37c0,1.75-1.42,3.17-3.17,3.17c-1.75,0-3.17-1.42-3.17-3.17c0-1.75,1.42-3.17,3.17-3.17
			C458.58,418.2,460,419.62,460,421.37z"/>
		<path class="st8" d="M463.48,417.97c0,0.77-0.62,1.39-1.39,1.39s-1.39-0.62-1.39-1.39c0-0.77,0.62-1.39,1.39-1.39
			S463.48,417.2,463.48,417.97z"/>
		<path class="st5" d="M462.63,413.36c-1.41,0-2.75,0.26-4,0.73c0.15-0.01,0.3-0.02,0.46-0.02c5.01,0,9.06,4.06,9.06,9.06
			c0,5.01-4.06,9.06-9.06,9.06c-2.77,0-5.25-1.25-6.91-3.21c1.7,4.1,5.74,6.99,10.45,6.99c6.24,0,11.31-5.06,11.31-11.31
			S468.87,413.36,462.63,413.36z"/>
	</g>
</g>
<g>
	<g>
		<path class="st7" d="M308.77,312.79c3.91,2.26,3.93,5.91,0.05,8.17c-3.88,2.26-10.2,2.26-14.1,0c-3.91-2.26-3.93-5.91-0.05-8.17
			C298.55,310.53,304.86,310.53,308.77,312.79z"/>
	</g>
	<g>
		<rect x="299.67" y="304.23" class="st5" width="3.74" height="13.79"/>
		<path class="st2" d="M313.54,294.96c0,6.24-5.06,11.31-11.31,11.31s-11.31-5.06-11.31-11.31c0-6.24,5.06-11.31,11.31-11.31
			S313.54,288.72,313.54,294.96z"/>
		<path class="st8" d="M299.61,291.67c0,1.75-1.42,3.17-3.17,3.17c-1.75,0-3.17-1.42-3.17-3.17c0-1.75,1.42-3.17,3.17-3.17
			C298.19,288.49,299.61,289.91,299.61,291.67z"/>
		<path class="st8" d="M303.09,288.26c0,0.77-0.62,1.39-1.39,1.39s-1.39-0.62-1.39-1.39s0.62-1.39,1.39-1.39
			S303.09,287.49,303.09,288.26z"/>
		<path class="st5" d="M302.23,283.66c-1.41,0-2.75,0.26-4,0.73c0.15-0.01,0.3-0.02,0.46-0.02c5,0,9.06,4.06,9.06,9.06
			c0,5.01-4.06,9.06-9.06,9.06c-2.77,0-5.25-1.25-6.91-3.21c1.7,4.1,5.74,6.99,10.45,6.99c6.24,0,11.31-5.06,11.31-11.31
			C313.54,288.72,308.47,283.66,302.23,283.66z"/>
	</g>
</g>
<g>
	<g>
		<path class="st7" d="M95.18,230.96c3.91,2.26,3.93,5.91,0.05,8.17c-3.88,2.26-10.2,2.26-14.1,0s-3.93-5.91-0.05-8.17
			C84.96,228.7,91.27,228.7,95.18,230.96z"/>
	</g>
	<g>
		<rect x="86.08" y="222.4" class="st5" width="3.74" height="13.79"/>
		<path class="st2" d="M99.95,213.13c0,6.24-5.06,11.31-11.31,11.31c-6.24,0-11.31-5.06-11.31-11.31c0-6.24,5.06-11.31,11.31-11.31
			C94.89,201.83,99.95,206.89,99.95,213.13z"/>
		<circle class="st8" cx="82.85" cy="209.84" r="3.17"/>
		<path class="st8" d="M89.5,206.43c0,0.77-0.62,1.39-1.39,1.39c-0.77,0-1.39-0.62-1.39-1.39c0-0.77,0.62-1.39,1.39-1.39
			C88.88,205.04,89.5,205.66,89.5,206.43z"/>
		<path class="st5" d="M88.64,201.83c-1.41,0-2.75,0.26-3.99,0.73c0.15-0.01,0.3-0.02,0.46-0.02c5.01,0,9.06,4.06,9.06,9.06
			c0,5-4.06,9.06-9.06,9.06c-2.77,0-5.25-1.25-6.91-3.21c1.7,4.1,5.74,6.99,10.45,6.99c6.24,0,11.31-5.06,11.31-11.31
			C99.95,206.89,94.89,201.83,88.64,201.83z"/>
	</g>
</g>
<g>
	<g>
		<polygon class="st3" points="530.58,258.31 530.57,269.94 530.57,273.83 530.56,280.37 530.56,284.25 530.55,296.25 
			530.55,300.13 530.54,306.67 530.54,310.55 530.52,322.55 530.52,326.42 530.51,332.97 530.51,336.86 530.5,349.63 485.48,323.62 
			485.49,311.19 485.49,307.31 485.5,300.76 485.5,296.88 485.51,284.88 485.51,281 485.52,274.46 485.52,270.58 485.53,258.58 
			485.53,254.71 485.54,248.16 485.54,244.28 485.55,232.31 		"/>
	</g>
	<path class="st1" d="M558.98,232.4v91.3c0,5.83-3.81,11.63-11.46,16.07l-9.61,5.6l-7.34,4.27l-0.08-0.04l0.02-5.18l0.06-86.1
		l16.95-9.85c1.63-0.95,3.09-1.96,4.38-3.02C556.63,241.53,558.98,236.96,558.98,232.4z"/>
	<g>
		<path class="st7" d="M547.35,216.18c15.44,8.91,15.52,23.37,0.18,32.28l-16.96,9.85l-45.02-26l44.73-26L547.35,216.18z"/>
	</g>
	<g>
		<g>
			<polygon class="st3" points="528.67,235.69 528.61,247.16 493.87,227.1 493.92,215.63 			"/>
		</g>
		<path class="st1" d="M545.13,225.75c-0.99,0.82-2.12,1.6-3.37,2.33l-13.09,7.6l-0.05,7.44l-0.01,3.99l0.06,0.03l5.66-3.29
			l7.42-4.31c5.9-3.42,8.84-7.91,8.84-12.4v-11.47C550.6,219.21,548.78,222.74,545.13,225.75z"/>
		<g>
			<path class="st2" d="M541.62,203.17c11.92,6.88,11.97,18.03,0.14,24.91l-13.09,7.61l-34.75-20.06l34.52-20.06L541.62,203.17z"/>
		</g>
	</g>
	<g>
		<polygon class="st5" points="530.57,269.94 485.54,244.28 485.54,248.16 530.57,273.83 		"/>
		<polygon class="st5" points="530.56,280.38 530.56,280.37 485.53,254.71 485.53,258.58 530.56,284.25 		"/>
		<polygon class="st5" points="530.55,296.25 485.52,270.58 485.52,274.46 530.55,300.13 		"/>
		<polygon class="st5" points="530.54,306.67 485.51,281 485.51,284.88 530.54,310.55 		"/>
		<polygon class="st5" points="530.52,322.55 485.5,296.88 485.5,300.76 530.52,326.42 		"/>
		<polygon class="st5" points="485.49,307.31 485.49,311.19 530.51,336.86 530.51,332.97 		"/>
	</g>
	<g>
		<polygon class="st2" points="558.98,253.75 558.98,257.64 530.58,273.83 530.58,269.94 		"/>
		<polygon class="st2" points="558.98,268.06 530.59,284.25 530.59,280.38 530.59,280.37 558.98,264.19 		"/>
		<polygon class="st2" points="558.98,280.06 558.98,283.95 530.6,300.13 530.6,296.25 		"/>
		<polygon class="st2" points="558.98,294.37 530.61,310.55 530.61,306.67 558.98,290.49 		"/>
		<polygon class="st2" points="558.98,306.38 558.98,310.25 530.62,326.42 530.62,322.55 		"/>
		<polygon class="st2" points="558.98,316.81 558.98,320.69 530.63,336.86 530.63,332.97 		"/>
	</g>
</g>
<g>
	<g>
		<g>
			<polygon class="st11" points="516.21,268.9 473.83,293.6 401.4,251.78 443.79,227.08 			"/>
		</g>
		<g>
			<polygon class="st1" points="516.21,268.9 516.09,363.88 473.7,388.58 473.83,293.6 			"/>
		</g>
		<polygon class="st3" points="473.83,293.6 473.7,388.58 401.28,346.76 401.4,251.78 		"/>
	</g>
	<g>
		<g>
			<polygon class="st5" points="501.32,256.96 473.14,273.39 414.86,241.04 443.05,224.61 			"/>
		</g>
		<g>
			<polygon class="st1" points="501.32,256.96 501.24,265.77 473.05,282.2 473.14,273.39 			"/>
		</g>
		<polygon class="st3" points="473.14,273.39 473.05,282.2 414.78,249.85 414.86,241.04 		"/>
	</g>
	<g>
		<polygon class="st5" points="412.44,270.04 424.25,276.86 424.25,285.71 412.44,278.89 		"/>
		<polygon class="st5" points="430.75,280.61 442.57,287.44 442.57,296.29 430.75,289.47 		"/>
		<polygon class="st5" points="449.06,291.19 460.88,298.02 460.88,306.86 449.06,300.04 		"/>
		<polygon class="st5" points="412.44,286.07 424.25,292.88 424.25,301.73 412.44,294.91 		"/>
		<polygon class="st5" points="430.75,296.64 442.57,303.46 442.57,312.31 430.75,305.49 		"/>
		<polygon class="st5" points="449.06,307.22 460.88,314.04 460.88,322.88 449.06,316.06 		"/>
		<polygon class="st5" points="412.44,302.09 424.25,308.9 424.25,317.77 412.44,310.94 		"/>
		<polygon class="st5" points="430.75,312.66 442.57,319.48 442.57,328.34 430.75,321.51 		"/>
		<polygon class="st5" points="449.06,323.24 460.88,330.06 460.88,338.91 449.06,332.09 		"/>
		<polygon class="st5" points="412.44,318.11 424.25,324.93 424.25,333.79 412.44,326.96 		"/>
		<polygon class="st5" points="430.75,328.69 442.57,335.5 442.57,344.36 430.75,337.54 		"/>
		<polygon class="st5" points="449.06,339.26 460.88,346.09 460.88,354.93 449.06,348.12 		"/>
		<polygon class="st5" points="412.44,334.14 424.25,340.96 424.25,349.81 412.44,342.99 		"/>
		<polygon class="st5" points="430.75,344.71 442.57,351.54 442.57,360.39 430.75,353.57 		"/>
		<polygon class="st5" points="449.06,355.29 460.88,362.12 460.88,370.96 449.06,364.14 		"/>
	</g>
	<g>
		<polygon class="st11" points="508.37,284.47 483.78,298.67 483.78,307.52 508.37,293.32 		"/>
		<polygon class="st11" points="508.37,300.49 483.78,314.69 483.78,323.54 508.37,309.35 		"/>
		<polygon class="st11" points="508.37,316.52 483.78,330.72 483.78,339.57 508.37,325.37 		"/>
		<polygon class="st11" points="508.37,332.54 483.78,346.74 483.78,355.6 508.37,341.4 		"/>
		<polygon class="st11" points="508.37,348.57 483.78,362.77 483.78,371.62 508.37,357.42 		"/>
	</g>
</g>
<g>
	<g>
		<g>
			<polygon class="st11" points="279.72,317.9 237.34,342.6 164.91,300.78 207.29,276.08 			"/>
		</g>
		<g>
			<polygon class="st1" points="279.72,317.9 279.6,412.88 237.21,437.58 237.34,342.6 			"/>
		</g>
		<polygon class="st3" points="237.34,342.6 237.21,437.58 164.79,395.76 164.91,300.78 		"/>
	</g>
	<g>
		<g>
			<polygon class="st5" points="264.83,305.96 236.64,322.39 178.37,290.04 206.56,273.61 			"/>
		</g>
		<g>
			<polygon class="st1" points="264.83,305.96 264.75,314.77 236.56,331.2 236.64,322.39 			"/>
		</g>
		<polygon class="st3" points="236.64,322.39 236.56,331.2 178.29,298.85 178.37,290.04 		"/>
	</g>
	<g>
		<polygon class="st5" points="175.94,319.04 187.76,325.86 187.76,334.71 175.94,327.89 		"/>
		<polygon class="st5" points="194.26,329.61 206.07,336.44 206.07,345.29 194.26,338.47 		"/>
		<polygon class="st5" points="212.57,340.19 224.39,347.02 224.39,355.86 212.57,349.04 		"/>
		<polygon class="st5" points="175.94,335.07 187.76,341.88 187.76,350.73 175.94,343.91 		"/>
		<polygon class="st5" points="194.26,345.64 206.07,352.46 206.07,361.31 194.26,354.49 		"/>
		<polygon class="st5" points="212.57,356.22 224.39,363.04 224.39,371.88 212.57,365.06 		"/>
		<polygon class="st5" points="175.94,351.09 187.76,357.9 187.76,366.77 175.94,359.94 		"/>
		<polygon class="st5" points="194.26,361.66 206.07,368.48 206.07,377.34 194.26,370.51 		"/>
		<polygon class="st5" points="212.57,372.24 224.39,379.06 224.39,387.91 212.57,381.09 		"/>
		<polygon class="st5" points="175.94,367.11 187.76,373.93 187.76,382.79 175.94,375.96 		"/>
		<polygon class="st5" points="194.26,377.69 206.07,384.5 206.07,393.36 194.26,386.54 		"/>
		<polygon class="st5" points="212.57,388.26 224.39,395.09 224.39,403.93 212.57,397.12 		"/>
		<polygon class="st5" points="175.94,383.14 187.76,389.96 187.76,398.81 175.94,391.99 		"/>
		<polygon class="st5" points="194.26,393.71 206.07,400.54 206.07,409.39 194.26,402.57 		"/>
		<polygon class="st5" points="212.57,404.29 224.39,411.12 224.39,419.96 212.57,413.14 		"/>
	</g>
	<g>
		<polygon class="st11" points="271.88,333.47 247.29,347.67 247.29,356.52 271.88,342.32 		"/>
		<polygon class="st11" points="271.88,349.49 247.29,363.69 247.29,372.54 271.88,358.35 		"/>
		<polygon class="st11" points="271.88,365.52 247.29,379.72 247.29,388.57 271.88,374.37 		"/>
		<polygon class="st11" points="271.88,381.54 247.29,395.74 247.29,404.6 271.88,390.4 		"/>
		<polygon class="st11" points="271.88,397.57 247.29,411.77 247.29,420.62 271.88,406.42 		"/>
	</g>
</g>
<g>
	<g>
		<polygon class="st3" points="595.84,322.12 595.7,405.57 552.93,380.88 553.07,297.43 		"/>
	</g>
	<g>
		<polygon class="st1" points="595.84,322.12 637.92,297.67 637.78,381.12 595.7,405.57 		"/>
	</g>
	<g>
		<polygon class="st6" points="553.07,297.43 595.14,272.98 637.92,297.67 595.84,322.12 		"/>
	</g>
	<g>
		<polygon class="st7" points="637.92,297.67 624.78,305.3 613.01,312.15 595.84,322.13 553.07,297.43 570.23,287.46 582.01,280.62 
			595.14,272.98 		"/>
	</g>
	<g>
		<g>
			<polygon class="st3" points="595.91,294.66 595.84,325.37 574.14,312.84 574.21,282.13 			"/>
		</g>
		<g>
			<polygon class="st5" points="591.24,301.67 591.21,319.44 578.82,312.28 578.85,294.53 			"/>
		</g>
		<g>
			<polygon class="st1" points="595.91,294.66 617.26,282.26 617.19,312.96 595.84,325.37 			"/>
		</g>
		<g>
			<polygon class="st6" points="574.21,282.13 595.56,269.73 617.26,282.26 595.91,294.66 			"/>
		</g>
		<g>
			<polygon class="st7" points="617.26,282.26 610.59,286.13 604.62,289.6 595.91,294.66 574.21,282.14 582.92,277.08 588.89,273.6 
				595.56,269.73 			"/>
		</g>
		<g>
			<polygon class="st2" points="600.59,301.32 600.62,319.09 613.02,311.93 612.98,294.17 			"/>
		</g>
	</g>
	<polygon class="st5" points="553.07,307.52 553.07,310.95 595.56,335.48 595.56,332.05 	"/>
	<polygon class="st2" points="637.91,311.2 637.92,307.76 595.84,332.21 595.56,332.05 595.56,335.48 595.84,335.65 	"/>
	<polygon class="st5" points="553.07,319.36 553.07,322.79 595.56,347.32 595.56,343.89 	"/>
	<polygon class="st2" points="637.91,323.04 637.92,319.6 595.84,344.06 595.56,343.89 595.56,347.32 595.84,347.49 	"/>
	<polygon class="st2" points="595.84,359.33 637.91,334.88 637.92,331.45 595.84,355.9 595.56,355.73 595.56,359.17 	"/>
	<polygon class="st5" points="553.07,334.64 595.56,359.17 595.56,355.73 553.07,331.2 	"/>
	<polygon class="st2" points="595.84,371.17 637.91,346.73 637.92,343.29 595.84,367.74 595.56,367.57 595.56,371.01 	"/>
	<polygon class="st5" points="553.07,346.48 595.56,371.01 595.56,367.57 553.07,343.05 	"/>
	<polygon class="st2" points="595.84,383.02 637.91,358.57 637.92,355.13 595.84,379.58 595.56,379.42 595.56,382.85 	"/>
	<polygon class="st5" points="553.07,358.32 595.56,382.85 595.56,379.42 553.07,354.89 	"/>
	<polygon class="st5" points="553.07,370.16 595.56,394.69 595.56,391.26 553.07,366.73 	"/>
	<polygon class="st2" points="595.84,394.86 637.91,370.41 637.92,366.97 595.84,391.42 595.56,391.26 595.56,394.69 	"/>
</g>
<g>
	<g>
		<polygon class="st5" points="584.49,363.26 550.39,383.08 513.46,361.76 547.56,341.94 		"/>
		<polygon class="st4" points="522.42,361.74 547.57,347.13 575.53,363.27 550.38,377.89 		"/>
	</g>
	<g>
		<polygon class="st1" points="584.49,363.26 584.41,412.36 550.31,432.17 550.39,383.08 		"/>
	</g>
	<g>
		<polygon class="st4" points="577.94,374.31 577.89,380.84 556.85,393.06 556.9,386.54 		"/>
		<polygon class="st4" points="577.94,400.97 577.89,407.5 556.85,419.73 556.9,413.2 		"/>
		<polygon class="st4" points="577.94,387.54 577.89,394.07 556.85,406.3 556.9,399.77 		"/>
	</g>
	<g>
		<polygon class="st3" points="550.39,383.08 550.31,432.17 513.37,410.85 513.46,361.76 		"/>
	</g>
	<polygon class="st2" points="522.42,361.74 526.03,363.83 547.57,351.32 547.57,347.13 	"/>
	<polygon class="st2" points="547.57,347.13 547.57,351.32 571.91,365.37 575.53,363.27 	"/>
	<g>
		<g>
			<polygon class="st5" points="536.91,406.03 536.87,424.4 522.61,416.16 522.65,397.8 			"/>
		</g>
	</g>
</g>
<g>
	<g>
		<path class="st7" d="M390.86,336.29c3.91,2.26,3.93,5.91,0.05,8.17c-3.88,2.26-10.2,2.26-14.1,0c-3.91-2.26-3.93-5.91-0.05-8.17
			C380.64,334.04,386.95,334.04,390.86,336.29z"/>
	</g>
	<g>
		<rect x="381.76" y="327.74" class="st5" width="3.74" height="13.79"/>
		<path class="st2" d="M395.63,318.47c0,6.24-5.06,11.31-11.31,11.31s-11.31-5.06-11.31-11.31s5.06-11.31,11.31-11.31
			S395.63,312.23,395.63,318.47z"/>
		<circle class="st8" cx="378.53" cy="315.18" r="3.17"/>
		<path class="st8" d="M385.18,311.77c0,0.77-0.62,1.39-1.39,1.39c-0.77,0-1.39-0.62-1.39-1.39c0-0.77,0.62-1.39,1.39-1.39
			C384.56,310.38,385.18,311,385.18,311.77z"/>
		<path class="st5" d="M384.32,307.17c-1.41,0-2.75,0.26-3.99,0.73c0.15-0.01,0.3-0.02,0.46-0.02c5.01,0,9.06,4.06,9.06,9.06
			c0,5-4.06,9.06-9.06,9.06c-2.77,0-5.25-1.25-6.91-3.21c1.7,4.1,5.74,6.99,10.45,6.99c6.24,0,11.31-5.06,11.31-11.31
			S390.57,307.17,384.32,307.17z"/>
	</g>
</g>
<g>
	<g>
		<path class="st7" d="M564.59,165.61c3.91,2.26,3.93,5.91,0.05,8.17c-3.88,2.26-10.2,2.26-14.1,0s-3.93-5.91-0.05-8.17
			C554.37,163.36,560.69,163.36,564.59,165.61z"/>
	</g>
	<g>
		<rect x="555.49" y="157.06" class="st5" width="3.74" height="13.79"/>
		<circle class="st2" cx="558.06" cy="147.79" r="11.31"/>
		<path class="st8" d="M555.43,144.49c0,1.75-1.42,3.17-3.17,3.17s-3.17-1.42-3.17-3.17c0-1.75,1.42-3.17,3.17-3.17
			S555.43,142.74,555.43,144.49z"/>
		<path class="st8" d="M558.91,141.09c0,0.77-0.62,1.39-1.39,1.39c-0.77,0-1.39-0.62-1.39-1.39c0-0.77,0.62-1.39,1.39-1.39
			C558.29,139.69,558.91,140.32,558.91,141.09z"/>
		<path class="st5" d="M558.06,136.48c-1.41,0-2.75,0.26-3.99,0.73c0.15-0.01,0.3-0.02,0.46-0.02c5,0,9.06,4.06,9.06,9.06
			c0,5.01-4.06,9.06-9.06,9.06c-2.77,0-5.25-1.25-6.91-3.21c1.7,4.1,5.74,6.99,10.45,6.99c6.24,0,11.31-5.06,11.31-11.31
			S564.3,136.48,558.06,136.48z"/>
	</g>
</g>
<g>
	<g>
		<path class="st7" d="M529.27,186.26c3.91,2.26,3.93,5.91,0.05,8.17c-3.88,2.26-10.2,2.26-14.1,0c-3.91-2.26-3.93-5.91-0.05-8.17
			C519.05,184,525.37,184,529.27,186.26z"/>
	</g>
	<g>
		<rect x="520.17" y="177.7" class="st5" width="3.74" height="13.79"/>
		<path class="st2" d="M534.04,168.43c0,6.24-5.06,11.31-11.31,11.31c-6.24,0-11.31-5.06-11.31-11.31c0-6.24,5.06-11.31,11.31-11.31
			C528.98,157.13,534.04,162.19,534.04,168.43z"/>
		<path class="st8" d="M520.11,165.14c0,1.75-1.42,3.17-3.17,3.17c-1.75,0-3.17-1.42-3.17-3.17c0-1.75,1.42-3.17,3.17-3.17
			C518.69,161.96,520.11,163.38,520.11,165.14z"/>
		<path class="st8" d="M523.59,161.73c0,0.77-0.62,1.39-1.39,1.39c-0.77,0-1.39-0.62-1.39-1.39c0-0.77,0.62-1.39,1.39-1.39
			C522.97,160.34,523.59,160.96,523.59,161.73z"/>
		<path class="st5" d="M522.74,157.13c-1.41,0-2.75,0.26-4,0.73c0.15-0.01,0.3-0.02,0.46-0.02c5,0,9.06,4.06,9.06,9.06
			c0,5-4.06,9.06-9.06,9.06c-2.77,0-5.25-1.25-6.91-3.21c1.7,4.1,5.74,6.99,10.45,6.99c6.24,0,11.31-5.06,11.31-11.31
			C534.04,162.19,528.98,157.13,522.74,157.13z"/>
	</g>
</g>
<g>
	<g>
		<path class="st7" d="M442.22,122.45c3.91,2.26,3.93,5.91,0.05,8.17c-3.88,2.26-10.2,2.26-14.1,0c-3.91-2.26-3.93-5.91-0.05-8.17
			C432,120.19,438.32,120.19,442.22,122.45z"/>
	</g>
	<g>
		<rect x="433.12" y="113.89" class="st5" width="3.74" height="13.79"/>
		<path class="st2" d="M446.99,104.62c0,6.24-5.06,11.31-11.31,11.31s-11.31-5.06-11.31-11.31s5.06-11.31,11.31-11.31
			S446.99,98.38,446.99,104.62z"/>
		<path class="st8" d="M433.07,101.33c0,1.75-1.42,3.17-3.17,3.17c-1.75,0-3.17-1.42-3.17-3.17s1.42-3.17,3.17-3.17
			C431.65,98.16,433.07,99.58,433.07,101.33z"/>
		<path class="st8" d="M436.55,97.92c0,0.77-0.62,1.39-1.39,1.39s-1.39-0.62-1.39-1.39c0-0.77,0.62-1.39,1.39-1.39
			S436.55,97.15,436.55,97.92z"/>
		<path class="st5" d="M435.69,93.32c-1.41,0-2.75,0.26-4,0.73c0.15-0.01,0.3-0.02,0.46-0.02c5,0,9.06,4.06,9.06,9.06
			s-4.06,9.06-9.06,9.06c-2.77,0-5.25-1.25-6.91-3.21c1.7,4.1,5.74,6.99,10.45,6.99c6.24,0,11.31-5.06,11.31-11.31
			S441.93,93.32,435.69,93.32z"/>
	</g>
</g>
<g>
	<g>
		<g>
			<polygon class="st11" points="369.18,372.65 326.8,397.35 254.37,355.54 296.75,330.84 			"/>
		</g>
		<g>
			<polygon class="st1" points="369.18,372.65 369.05,467.64 326.67,492.34 326.8,397.35 			"/>
		</g>
		<polygon class="st3" points="326.8,397.35 326.67,492.34 254.24,450.52 254.37,355.54 		"/>
	</g>
	<g>
		<g>
			<polygon class="st1" points="354.29,360.71 326.1,377.14 267.83,344.79 296.02,328.36 			"/>
		</g>
		<g>
			<polygon class="st1" points="354.29,360.71 354.21,369.53 326.02,385.96 326.1,377.14 			"/>
		</g>
		<polygon class="st3" points="326.1,377.14 326.02,385.96 267.74,353.61 267.83,344.79 		"/>
	</g>
	<g>
		<polygon class="st5" points="265.4,373.8 277.22,380.61 277.22,389.46 265.4,382.64 		"/>
		<polygon class="st5" points="283.72,384.37 295.53,391.19 295.53,400.05 283.72,393.22 		"/>
		<polygon class="st5" points="302.03,394.95 313.85,401.77 313.85,410.62 302.03,403.79 		"/>
		<polygon class="st5" points="265.4,389.82 277.22,396.63 277.22,405.49 265.4,398.66 		"/>
		<polygon class="st5" points="283.72,400.39 295.53,407.21 295.53,416.07 283.72,409.24 		"/>
		<polygon class="st5" points="302.03,410.97 313.85,417.79 313.85,426.64 302.03,419.81 		"/>
		<polygon class="st5" points="265.4,405.84 277.22,412.66 277.22,421.52 265.4,414.7 		"/>
		<polygon class="st5" points="283.72,416.41 295.53,423.24 295.53,432.09 283.72,425.27 		"/>
		<polygon class="st5" points="302.03,426.99 313.85,433.82 313.85,442.66 302.03,435.85 		"/>
		<polygon class="st5" points="265.4,421.87 277.22,428.69 277.22,437.54 265.4,430.72 		"/>
		<polygon class="st5" points="283.72,432.45 295.53,439.26 295.53,448.11 283.72,441.29 		"/>
		<polygon class="st5" points="302.03,443.02 313.85,449.84 313.85,458.68 302.03,451.87 		"/>
		<polygon class="st5" points="265.4,437.9 277.22,444.71 277.22,453.57 265.4,446.74 		"/>
		<polygon class="st5" points="283.72,448.47 295.53,455.29 295.53,464.15 283.72,457.32 		"/>
		<polygon class="st5" points="302.03,459.05 313.85,465.87 313.85,474.72 302.03,467.89 		"/>
	</g>
	<g>
		<polygon class="st11" points="361.34,388.22 336.74,402.42 336.74,411.27 361.34,397.07 		"/>
		<polygon class="st11" points="361.34,404.25 336.74,418.45 336.74,427.3 361.34,413.1 		"/>
		<polygon class="st11" points="361.34,420.27 336.74,434.47 336.74,443.32 361.34,429.13 		"/>
		<polygon class="st11" points="361.34,436.3 336.74,450.5 336.74,459.35 361.34,445.15 		"/>
		<polygon class="st11" points="361.34,452.32 336.74,466.52 336.74,475.38 361.34,461.18 		"/>
	</g>
</g>
<g>
	<g>
		<polygon class="st5" points="407.23,450.92 373.13,470.74 336.2,449.42 370.3,429.6 		"/>
		<polygon class="st4" points="345.16,449.4 370.31,434.79 398.27,450.93 373.12,465.55 		"/>
	</g>
	<g>
		<polygon class="st1" points="407.23,450.92 407.15,500.02 373.05,519.83 373.13,470.74 		"/>
	</g>
	<g>
		<polygon class="st4" points="400.69,461.97 400.64,468.5 379.59,480.73 379.64,474.2 		"/>
		<polygon class="st4" points="400.69,488.63 400.64,495.16 379.59,507.39 379.64,500.86 		"/>
		<polygon class="st4" points="400.69,475.2 400.64,481.73 379.59,493.96 379.64,487.43 		"/>
	</g>
	<g>
		<polygon class="st3" points="373.13,470.74 373.05,519.83 336.12,498.51 336.2,449.42 		"/>
	</g>
	<polygon class="st2" points="345.16,449.4 348.78,451.49 370.31,438.98 370.31,434.79 	"/>
	<polygon class="st2" points="370.31,434.79 370.31,438.98 394.66,453.04 398.27,450.93 	"/>
	<g>
		<g>
			<polygon class="st5" points="359.65,493.69 359.62,512.06 345.36,503.83 345.39,485.46 			"/>
		</g>
	</g>
</g>
<g>
	<path class="st12" d="M264.26,77.15c0-21.15-17.14-38.29-38.29-38.29c-21.15,0-38.29,17.14-38.29,38.29
		c0,18.97,13.79,34.7,31.9,37.75l6.41,47.24l6.38-47.24C250.46,111.85,264.26,96.11,264.26,77.15z"/>
	<g>
		<g>
			<g>
				<path class="st1" d="M215.05,59.53c-0.01,0.08-0.02,0.17-0.02,0.25v0.02c0-0.09,0.01-0.17,0.02-0.26
					C215.05,59.54,215.05,59.54,215.05,59.53z"/>
				<path class="st1" d="M236.88,59.55c0-0.01,0-0.02,0-0.03c0-5.92-4.89-10.73-10.92-10.73c-6.03,0-10.92,4.8-10.92,10.73
					c0,0,0,0,0,0.01c0,0.01,0,0.01,0,0.02c-0.01,0.08-0.02,0.17-0.02,0.26c0,0,0,0.57,0,1.58c0,0.89,0.73,1.61,1.62,1.61h1.37
					c0.89,0,1.62-0.72,1.62-1.61v-0.13c0-3.51,2.83-6.36,6.33-6.36c3.49,0,6.1,2.86,6.33,6.36c0.52,8.14-7.06,7.96-10.43,7.96
					c-1.31,0-5.25,0-5.25,0c-0.87,0-1.58,0.71-1.58,1.59c0,0,0,15.93,0,28.66c0,0.88,0.71,1.59,1.58,1.59h18.71
					c0.87,0,1.58-0.71,1.58-1.59V70.81v-11C236.9,59.72,236.89,59.63,236.88,59.55z"/>
			</g>
		</g>
		<path class="st12" d="M229.61,93.96l-7.17-11.72l0.07,11.72h-2.44V77.47h2.24l7.17,11.72l-0.07-11.72h2.44v16.49H229.61z"/>
	</g>
</g>
<g>
	<path class="st12" d="M460.02,328.28c0-21.15-17.14-38.29-38.29-38.29c-21.15,0-38.29,17.14-38.29,38.29
		c0,18.97,13.79,34.7,31.9,37.75l6.41,47.24l6.38-47.24C446.23,362.98,460.02,347.24,460.02,328.28z"/>
	<g>
		<path class="st1" d="M407.92,334.21l1.72-1.01c0.77-0.45,1.72-0.44,2.48,0.01l1.61,0.97c0.78,0.47,1.66,0.7,2.53,0.7
			c0.86,0,1.72-0.23,2.49-0.68l1.72-1.01c0.77-0.45,1.72-0.44,2.48,0.01l1.61,0.97c1.54,0.93,3.47,0.94,5.02,0.03l1.72-1.01
			c0.77-0.45,1.72-0.44,2.48,0.01l1.61,0.97c1.54,0.93,3.47,0.94,5.02,0.03l1.73-1.01l-1.26-2.15l-1.73,1.01
			c-0.77,0.45-1.72,0.44-2.48-0.01l-1.61-0.97c-1.3-0.78-2.88-0.91-4.27-0.39v-19.07c0-2.32,1.89-4.21,4.21-4.21h2.11v-2.49h-2.11
			c-3.7,0-6.7,3.01-6.7,6.7v2.04h-10.45v-2.04c0-2.32,1.89-4.21,4.21-4.21h2.11v-2.49h-2.11c-3.7,0-6.7,3.01-6.7,6.7v20.6
			c-0.12-0.05-0.24-0.11-0.36-0.18l-1.61-0.97c-1.54-0.93-3.47-0.94-5.02-0.03l-1.73,1.01c-0.77,0.45-1.72,0.44-2.48-0.01l-1.6-0.96
			l-1.28,2.14l1.6,0.96C404.44,335.11,406.37,335.12,407.92,334.21L407.92,334.21z M425.86,332.04l-1.61-0.97
			c-1.54-0.93-3.47-0.94-5.02-0.03l-1.35,0.79v-6.78h10.45v7C427.56,332.51,426.62,332.5,425.86,332.04L425.86,332.04z
			 M428.32,316.15v6.43h-10.45v-6.43H428.32z M428.32,316.15"/>
		<path class="st1" d="M407.92,340.49l1.72-1.01c0.77-0.45,1.72-0.44,2.48,0.01l1.61,0.97c1.54,0.93,3.47,0.94,5.02,0.03l1.72-1.01
			c0.77-0.45,1.72-0.44,2.48,0.01l1.61,0.97c1.54,0.93,3.47,0.94,5.02,0.03l1.72-1.01c0.77-0.45,1.72-0.44,2.48,0.01l1.61,0.97
			c0.78,0.47,1.66,0.7,2.53,0.7c0.86,0,1.72-0.23,2.49-0.68l1.73-1.01l-1.26-2.15l-1.73,1.01c-0.77,0.45-1.72,0.44-2.48-0.01
			l-1.61-0.97c-1.54-0.93-3.47-0.94-5.02-0.03l-1.72,1.01c-0.77,0.45-1.72,0.44-2.48-0.01l-1.61-0.97
			c-1.54-0.93-3.47-0.94-5.02-0.03l-1.72,1.01c-0.77,0.45-1.72,0.44-2.48-0.01l-1.61-0.97c-1.54-0.93-3.47-0.94-5.02-0.03
			l-1.72,1.01c-0.77,0.45-1.72,0.44-2.48-0.01l-1.6-0.96l-1.28,2.14l1.6,0.96C404.44,341.39,406.37,341.4,407.92,340.49
			L407.92,340.49z M407.92,340.49"/>
		<path class="st1" d="M439.18,344.62c-0.77,0.45-1.72,0.44-2.48-0.01l-1.61-0.97c-1.54-0.93-3.47-0.94-5.02-0.03l-1.72,1.01
			c-0.77,0.45-1.72,0.44-2.48-0.01l-1.61-0.97c-1.54-0.93-3.47-0.94-5.02-0.03l-1.72,1.01c-0.77,0.45-1.72,0.44-2.48-0.01
			l-1.61-0.97c-1.54-0.93-3.47-0.94-5.02-0.03l-1.72,1.01c-0.77,0.45-1.72,0.44-2.48-0.01l-1.6-0.96l-1.28,2.14l1.6,0.96
			c1.54,0.93,3.47,0.94,5.02,0.03l1.72-1.01c0.77-0.45,1.72-0.44,2.48,0.01l1.61,0.97c1.54,0.93,3.47,0.94,5.02,0.03l1.72-1.01
			c0.77-0.45,1.72-0.44,2.48,0.01l1.61,0.97c1.54,0.93,3.47,0.94,5.02,0.03l1.72-1.01c0.77-0.45,1.72-0.44,2.48,0.01l1.61,0.97
			c0.78,0.47,1.66,0.7,2.53,0.7c0.86,0,1.72-0.23,2.49-0.68l1.73-1.01l-1.26-2.15L439.18,344.62z M439.18,344.62"/>
	</g>
</g>
<g>
	<path class="st12" d="M672.39,130.18c0-21.15-17.14-38.29-38.29-38.29c-21.15,0-38.29,17.14-38.29,38.29
		c0,18.97,13.79,34.7,31.9,37.75l6.41,47.24l6.38-47.24C658.6,164.88,672.39,149.15,672.39,130.18z"/>
	<g>
		<path class="st1" d="M644.84,131.12v-26.97c0-0.26-0.17-0.49-0.41-0.57c-0.25-0.08-0.52,0-0.68,0.21
			c-3.36,4.44-5.19,9.85-5.19,15.42v9.86c0,1.13,0.92,2.05,2.05,2.05h0.85c-0.84,8.7-1.4,20.86-1.4,22.28
			c0,2.24,1.38,4.06,3.08,4.06s3.08-1.82,3.08-4.06C646.24,151.98,645.68,139.81,644.84,131.12z"/>
		<path class="st1" d="M631.91,105.96c-0.57,0-1.03,0.48-1,1.05l0.55,11.09c0,0.62-0.51,1.13-1.13,1.13c-0.62,0-1.13-0.51-1.13-1.13
			l-0.27-11.08c-0.01-0.59-0.49-1.05-1.08-1.05s-1.06,0.47-1.08,1.05l-0.27,11.08c0,0.62-0.51,1.13-1.13,1.13s-1.13-0.51-1.13-1.13
			l0.55-11.09c0.03-0.57-0.43-1.05-1-1.05c-0.53,0-0.96,0.41-1,0.94l-0.85,13.82c0,2.14,1.14,4.02,2.85,5.05
			c1.11,0.67,1.73,1.93,1.59,3.22c-0.96,8.68-1.62,22.86-1.62,24.41c0,2.24,1.38,4.06,3.08,4.06s3.08-1.82,3.08-4.06
			c0-1.54-0.65-15.72-1.62-24.41c-0.14-1.29,0.48-2.55,1.59-3.22c1.71-1.03,2.85-2.91,2.85-5.05l-0.85-13.82
			C632.87,106.37,632.44,105.96,631.91,105.96z"/>
	</g>
</g>
</svg>
