<?xml version="1.0" encoding="utf-8"?>
<!-- Generator: Adobe Illustrator 23.0.3, SVG Export Plug-In . SVG Version: 6.00 Build 0)  -->
<svg version="1.1" id="Layer_1" xmlns="http://www.w3.org/2000/svg" xmlns:xlink="http://www.w3.org/1999/xlink" x="0px" y="0px"
	 viewBox="0 0 255.4 255.4" style="enable-background:new 0 0 255.4 255.4;" xml:space="preserve">
<style type="text/css">
	.st0{fill:#F05F22;}
	.st1{fill:#FFFFFF;}
</style>
<circle class="st0" cx="127.7" cy="127.7" r="127.7"/>
<g>
	<path class="st1" d="M165.2,129.84V35.75c0-0.91-0.58-1.71-1.44-2c-0.86-0.29-1.81,0-2.36,0.73
		c-11.74,15.48-18.09,34.38-18.09,53.81v34.42c0,3.95,3.2,7.15,7.15,7.15h2.98c-2.94,30.34-4.88,72.78-4.88,77.75
		c0,7.83,4.82,14.17,10.76,14.17s10.76-6.35,10.76-14.17C170.08,202.62,168.14,160.18,165.2,129.84z"/>
	<path class="st1" d="M120.07,42.06c-1.99,0-3.58,1.67-3.48,3.66l1.92,38.68c0,2.17-1.76,3.94-3.94,3.94
		c-2.17,0-3.94-1.76-3.94-3.94l-0.96-38.67c-0.05-2.04-1.72-3.67-3.77-3.67s-3.71,1.63-3.77,3.67l-0.96,38.67
		c0,2.17-1.76,3.94-3.94,3.94c-2.17,0-3.94-1.76-3.94-3.94l1.92-38.68c0.1-1.99-1.49-3.66-3.48-3.66c-1.84,0-3.37,1.43-3.48,3.27
		l-2.95,48.23c0,7.47,3.98,14.01,9.94,17.62c3.88,2.35,6.04,6.74,5.54,11.24c-3.36,30.3-5.65,79.77-5.65,85.16
		c0,7.83,4.82,14.17,10.76,14.17s10.76-6.35,10.76-14.17c0-5.39-2.28-54.86-5.65-85.16c-0.5-4.5,1.66-8.89,5.54-11.24
		c5.96-3.61,9.94-10.15,9.94-17.62l-2.95-48.23C123.44,43.5,121.91,42.06,120.07,42.06z"/>
</g>
</svg>
