<?xml version="1.0" encoding="iso-8859-1"?>
<!-- Generator: Adobe Illustrator 16.0.0, SVG Export Plug-In . SVG Version: 6.00 Build 0)  -->
<!DOCTYPE svg>
<svg version="1.1" id="Capa_1" xmlns="http://www.w3.org/2000/svg" xmlns:xlink="http://www.w3.org/1999/xlink" x="0px" y="0px"
	 width="44.409px" height="44.409px" viewBox="0 0 44.409 44.409" style="enable-background:new 0 0 44.409 44.409;"
	 xml:space="preserve">
<g>
	<path d="M35.796,5.722c1.5,0,2.733-1.198,2.733-2.697v-0.33C38.53,1.202,37.301,0,35.807,0H8.94H8.675
		C7.071,0,5.879,1.207,5.879,2.707v0.318c0,1.499,1.192,2.697,2.691,2.697h0.143v26.404H8.57c-1.5,0-2.691,1.214-2.691,2.713v0.317
		c0,1.5,1.192,2.691,2.691,2.691h0.143v6.562h9.659v-6.681c0-1.219,1.012-2.191,2.232-2.191h3.157c1.22,0,2.224,0.973,2.224,2.191
		v6.681h9.658v-6.562h0.153c1.5,0,2.733-1.191,2.733-2.691v-0.317c0-1.95-1.707-2.713-2.733-2.713h-0.153V5.722H35.796z
		 M17.69,30.604c0,0.58-0.47,1.051-1.05,1.051h-2.678c-0.58,0-1.05-0.471-1.05-1.051v-2.676c0-0.58,0.47-1.051,1.05-1.051h2.678
		c0.58,0,1.05,0.471,1.05,1.051V30.604z M17.69,23.727c0,0.58-0.47,1.051-1.05,1.051h-2.677c-0.58,0-1.05-0.471-1.05-1.051V21.05
		c0-0.58,0.47-1.05,1.05-1.05h2.677c0.58,0,1.05,0.47,1.05,1.05V23.727z M17.69,16.851c0,0.58-0.47,1.05-1.05,1.05h-2.677
		c-0.58,0-1.05-0.47-1.05-1.05v-2.677c0-0.58,0.47-1.05,1.05-1.05h2.677c0.58,0,1.05,0.47,1.05,1.05V16.851z M17.69,9.974
		c0,0.58-0.47,1.05-1.05,1.05h-2.677c-0.58,0-1.05-0.47-1.05-1.05V7.296c0-0.58,0.47-1.05,1.05-1.05h2.677
		c0.58,0,1.05,0.47,1.05,1.05V9.974z M24.567,30.604c0,0.58-0.469,1.051-1.049,1.051h-2.679c-0.58,0-1.05-0.471-1.05-1.051v-2.676
		c0-0.58,0.47-1.051,1.05-1.051h2.679c0.58,0,1.049,0.471,1.049,1.051V30.604z M24.567,23.727c0,0.58-0.469,1.051-1.049,1.051H20.84
		c-0.58,0-1.05-0.471-1.05-1.051V21.05c0-0.58,0.47-1.05,1.05-1.05h2.678c0.58,0,1.049,0.47,1.049,1.05V23.727z M24.567,16.851
		c0,0.58-0.469,1.05-1.049,1.05h-2.679c-0.58,0-1.05-0.47-1.05-1.05v-2.678c0-0.58,0.47-1.05,1.05-1.05h2.679
		c0.58,0,1.049,0.47,1.049,1.05V16.851z M24.567,9.974c0,0.58-0.469,1.05-1.049,1.05h-2.679c-0.58,0-1.05-0.47-1.05-1.05V7.296
		c0-0.58,0.47-1.05,1.05-1.05h2.679c0.58,0,1.049,0.47,1.049,1.05V9.974z M31.444,30.604c0,0.58-0.469,1.051-1.049,1.051h-2.679
		c-0.58,0-1.05-0.471-1.05-1.051v-2.678c0-0.58,0.47-1.05,1.05-1.05h2.679c0.58,0,1.049,0.47,1.049,1.05V30.604z M31.444,23.727
		c0,0.58-0.469,1.051-1.049,1.051h-2.678c-0.58,0-1.05-0.471-1.05-1.051V21.05c0-0.58,0.47-1.05,1.05-1.05h2.678
		c0.58,0,1.049,0.47,1.049,1.05V23.727z M31.444,16.851c0,0.58-0.469,1.05-1.049,1.05h-2.679c-0.58,0-1.05-0.47-1.05-1.05v-2.678
		c0-0.58,0.47-1.05,1.05-1.05h2.679c0.58,0,1.049,0.47,1.049,1.05V16.851z M31.444,9.974c0,0.58-0.469,1.05-1.049,1.05h-2.679
		c-0.58,0-1.05-0.47-1.05-1.05V7.296c0-0.58,0.47-1.05,1.05-1.05h2.679c0.58,0,1.049,0.47,1.049,1.05V9.974z"/>
</g>
</svg>
